<?xml version="1.0" encoding="utf-8"?>
<!-- Generator: Adobe Illustrator 16.0.0, SVG Export Plug-In . SVG Version: 6.00 Build 0)  -->
<!DOCTYPE svg PUBLIC "-//W3C//DTD SVG 1.1//EN" "http://www.w3.org/Graphics/SVG/1.1/DTD/svg11.dtd" [
	<!ENTITY ns_extend "http://ns.adobe.com/Extensibility/1.0/">
	<!ENTITY ns_ai "http://ns.adobe.com/AdobeIllustrator/10.0/">
	<!ENTITY ns_graphs "http://ns.adobe.com/Graphs/1.0/">
	<!ENTITY ns_vars "http://ns.adobe.com/Variables/1.0/">
	<!ENTITY ns_imrep "http://ns.adobe.com/ImageReplacement/1.0/">
	<!ENTITY ns_sfw "http://ns.adobe.com/SaveForWeb/1.0/">
	<!ENTITY ns_custom "http://ns.adobe.com/GenericCustomNamespace/1.0/">
	<!ENTITY ns_adobe_xpath "http://ns.adobe.com/XPath/1.0/">
]>
<svg version="1.1" id="Layer_1" xmlns:x="&ns_extend;" xmlns:i="&ns_ai;" xmlns:graph="&ns_graphs;"
	 xmlns="http://www.w3.org/2000/svg" xmlns:xlink="http://www.w3.org/1999/xlink" x="0px" y="0px" width="145px" height="28.688px"
	 viewBox="0 0 145 28.688" enable-background="new 0 0 145 28.688" xml:space="preserve">
<metadata>
	<sfw  xmlns="&ns_sfw;">
		<slices></slices>
		<sliceSourceBounds  width="144.631" height="28.094" x="55.163" y="63.337" bottomLeftOrigin="true"></sliceSourceBounds>
	</sfw>
</metadata>
<g>
	<g>
		<g>
			
				<linearGradient id="SVGID_1_" gradientUnits="userSpaceOnUse" x1="376.9033" y1="-217.1882" x2="307.8668" y2="-216.1828" gradientTransform="matrix(1 0 0 -1 -296 -191.312)">
				<stop  offset="0" style="stop-color:#9FE2FC"/>
				<stop  offset="1" style="stop-color:#0194C8"/>
			</linearGradient>
			<path fill="url(#SVGID_1_)" d="M37.785,26.112c0,0-6.265,1.77-12.444,1.376c-6.178-0.394-9.146-1.156-9.146-1.156
				s-8.019-1.942-9.563-2.313c-1.544-0.37-6.47-1.09-6.47-1.09s5.594-0.958,12.524-0.371c6.932,0.59,15.366,2.317,17.577,2.663
				C32.479,25.567,37.785,26.112,37.785,26.112"/>
			
				<linearGradient id="SVGID_2_" gradientUnits="userSpaceOnUse" x1="376.9189" y1="-216.1194" x2="307.8805" y2="-215.114" gradientTransform="matrix(1 0 0 -1 -296 -191.312)">
				<stop  offset="0" style="stop-color:#9FE2FC"/>
				<stop  offset="1" style="stop-color:#0194C8"/>
			</linearGradient>
			<path fill="url(#SVGID_2_)" d="M2.833,21.365c0,0,5.846-1.353,14.28-1.373c8.437-0.02,18.43,0.909,23.886,1.529
				c4.661,0.528,19.498,2.689,26.056,3.468c3.542,0.421,10.98,0.98,14.277,1.023c3.299,0.045,8.109-0.345,8.109-0.345
				s-3.597,1.441-9.194,2.122c-5.594,0.688-14.992,1.194-24.928,0c-9.938-1.189-18.12-3.172-25.972-4.35
				c-7.85-1.179-10.691-1.506-15.658-1.944C8.72,21.061,2.833,21.365,2.833,21.365"/>
			
				<linearGradient id="SVGID_3_" gradientUnits="userSpaceOnUse" x1="376.9756" y1="-212.4431" x2="307.9358" y2="-211.4376" gradientTransform="matrix(1 0 0 -1 -296 -191.312)">
				<stop  offset="0" style="stop-color:#9FE2FC"/>
				<stop  offset="1" style="stop-color:#0194C8"/>
			</linearGradient>
			<path fill="url(#SVGID_3_)" d="M1.538,20.077c0,0,2.885-1.047,9.398-2.202c6.513-1.153,15.783-1.439,22.505-1.242
				c6.722,0.198,19.082,1.592,19.082,1.592l17.076,2.138c0,0,10.609,1.266,15.201,1.504c4.588,0.243,8.685-0.195,10.938-0.654
				c0,0-3.089,3.513-12.65,3.732c-7.9,0.183-19.628-1.57-19.628-1.57s-20.289-2.661-24.968-3.185
				c-4.675-0.524-14.987-1.592-21.835-1.309C9.807,19.162,5.049,19.25,1.538,20.077"/>
		</g>
	</g>
	<g>
		<g>
			<g>
				<path fill="#0194C8" d="M8.149,12.955c-0.803,0.652-1.881,0.982-3.233,0.982c-1.382,0-2.493-0.344-3.336-1.031
					c-0.909-0.734-1.365-1.772-1.365-3.111V9.371h3.31c0,0.481,0.105,0.884,0.317,1.212c0.242,0.378,0.587,0.566,1.041,0.566
					c0.843,0,1.263-0.417,1.263-1.247c0-0.378-0.146-0.684-0.438-0.918C5.593,8.89,5.444,8.8,5.261,8.707l-0.25-0.121l-1.42-0.609
					C3.122,7.783,2.718,7.585,2.38,7.384C1.979,7.152,1.641,6.895,1.367,6.62C0.73,5.971,0.413,5.18,0.413,4.246
					c0-1.152,0.482-2.094,1.443-2.828c0.883-0.671,1.921-1.005,3.113-1.005c0.67,0,1.313,0.121,1.924,0.36
					C7.559,1.038,8.092,1.41,8.492,1.889c0.54,0.666,0.827,1.522,0.86,2.572H6.061C5.934,3.613,5.535,3.189,4.865,3.189
					c-0.762,0-1.144,0.342-1.144,1.025c0,0.238,0.042,0.424,0.122,0.55C3.972,4.988,4.37,5.262,5.036,5.587l1.376,0.62
					c0.483,0.218,0.882,0.427,1.203,0.626C8.007,7.074,8.327,7.329,8.58,7.598c0.585,0.62,0.875,1.4,0.875,2.339
					C9.455,11.243,9.019,12.249,8.149,12.955z"/>
				<path fill="#0194C8" d="M11.436,2.88V0.653h2.923v2.228L11.436,2.88L11.436,2.88z M11.436,13.685V3.91h2.923v9.776
					L11.436,13.685L11.436,13.685z"/>
				<path fill="#0194C8" d="M26.682,9.688h-7.324c0.185,1.235,0.945,1.847,2.286,1.847c0.698,0,1.292-0.303,1.78-0.908h2.992
					c-0.436,1.014-1.061,1.822-1.874,2.423c-0.865,0.637-1.831,0.952-2.896,0.952c-1.428,0-2.645-0.506-3.654-1.521
					c-1.014-1.007-1.521-2.226-1.521-3.652c0-1.434,0.496-2.662,1.487-3.688c1.004-1.043,2.215-1.567,3.637-1.567
					c1.479,0,2.712,0.524,3.704,1.567c0.969,1.027,1.453,2.283,1.453,3.773C26.75,9.196,26.727,9.454,26.682,9.688z M23.826,7.719
					c-0.24-1.114-0.98-1.675-2.217-1.675c-1.238,0-1.978,0.561-2.219,1.675H23.826z"/>
				<path fill="#0194C8" d="M35.178,13.685v-1.041h-0.035c-0.239,0.499-0.59,0.857-1.048,1.075C33.7,13.908,33.205,14,32.608,14
					c-1.244,0-2.202-0.409-2.872-1.23c-0.367-0.457-0.609-0.934-0.731-1.427c-0.098-0.371-0.146-0.901-0.146-1.589V3.91h2.921V9.32
					c0,0.63,0.099,1.094,0.292,1.393c0.241,0.372,0.666,0.56,1.273,0.56c1.117,0,1.676-0.664,1.676-1.985V3.91h2.923v9.776
					L35.178,13.685L35.178,13.685z"/>
				<path fill="#0194C8" d="M44.087,6.128v7.559h-2.923V6.128h-1.445V3.91h1.445V0.653h2.923v3.256h1.408v2.218L44.087,6.128
					L44.087,6.128z"/>
				<path fill="#0194C8" d="M53.41,13.685V8.373c0-0.613-0.105-1.086-0.312-1.419c-0.257-0.419-0.678-0.627-1.262-0.627
					c-0.59,0-1.021,0.185-1.29,0.549c-0.229,0.316-0.344,0.777-0.344,1.383v5.426h-2.922V0.653h2.922v4.161h0.033
					c0.241-0.431,0.603-0.751,1.083-0.963c0.413-0.185,0.89-0.275,1.435-0.275c1.158,0,2.043,0.359,2.658,1.076
					c0.417,0.481,0.688,1.045,0.808,1.695c0.051,0.258,0.084,0.563,0.095,0.909c0.007,0.138,0.013,0.298,0.017,0.481v5.95
					L53.41,13.685L53.41,13.685z"/>
				<path fill="#0194C8" d="M58.932,2.88V0.653h2.924v2.228L58.932,2.88L58.932,2.88z M58.932,13.685V3.91h2.924v9.776
					L58.932,13.685L58.932,13.685z"/>
				<path fill="#0194C8" d="M76.564,13.685V8.493c0-0.671-0.08-1.166-0.237-1.488c-0.231-0.451-0.649-0.68-1.255-0.68
					c-0.604,0-1.035,0.198-1.298,0.593c-0.22,0.327-0.326,0.802-0.326,1.427v5.341h-2.923V8.373c0-0.608-0.089-1.075-0.269-1.402
					c-0.234-0.432-0.632-0.648-1.193-0.648c-0.619,0-1.065,0.218-1.334,0.654c-0.211,0.343-0.316,0.848-0.316,1.513v5.192h-2.922
					V3.91h2.726v1.041h0.041c0.263-0.475,0.643-0.827,1.135-1.058c0.441-0.211,0.96-0.317,1.557-0.317
					c1.249,0,2.189,0.583,2.819,1.746c0.733-1.163,1.766-1.746,3.095-1.746c1.072,0,1.931,0.33,2.572,0.989
					c0.493,0.504,0.809,1.088,0.943,1.753c0.055,0.272,0.086,0.599,0.105,0.971c0.005,0.145,0.01,0.315,0.01,0.516v5.882
					L76.564,13.685L76.564,13.685z"/>
				<path fill="#0194C8" d="M89.414,13.685v-1.059h-0.035c-0.246,0.471-0.654,0.828-1.23,1.073
					c-0.491,0.212-1.033,0.318-1.622,0.318c-1.475,0-2.67-0.507-3.586-1.523c-0.883-0.984-1.321-2.221-1.321-3.704
					c0-1.463,0.45-2.688,1.352-3.681c0.933-1.026,2.117-1.539,3.558-1.539c0.583,0,1.121,0.109,1.614,0.327
					c0.552,0.242,0.964,0.591,1.236,1.048h0.035V3.91h2.921v9.776L89.414,13.685L89.414,13.685z M88.717,7.014
					c-0.463-0.471-1.05-0.704-1.763-0.704c-0.706,0-1.283,0.247-1.742,0.737c-0.451,0.478-0.671,1.069-0.671,1.781
					c0,0.682,0.23,1.261,0.694,1.736c0.476,0.481,1.054,0.724,1.739,0.724c0.703,0,1.287-0.238,1.753-0.716
					c0.455-0.476,0.687-1.068,0.687-1.78C89.414,8.077,89.181,7.485,88.717,7.014z"/>
				<path fill="#0194C8" d="M99.13,16.944h-3.094l1.547-3.749L93.957,3.91h3.113l1.958,5.676h0.033l1.863-5.676h3.098L99.13,16.944z
					"/>
				<path fill="#0194C8" d="M105.616,13.685V0.653h2.922v13.033L105.616,13.685L105.616,13.685z"/>
				<path fill="#0194C8" d="M118.518,13.685v-1.059h-0.036c-0.245,0.471-0.653,0.828-1.229,1.073
					c-0.493,0.212-1.035,0.318-1.625,0.318c-1.472,0-2.666-0.507-3.583-1.523c-0.885-0.984-1.321-2.221-1.321-3.704
					c0-1.463,0.447-2.688,1.348-3.681c0.937-1.026,2.12-1.539,3.559-1.539c0.586,0,1.124,0.109,1.615,0.327
					c0.551,0.242,0.965,0.591,1.236,1.048h0.036V3.91h2.921v9.776L118.518,13.685L118.518,13.685z M117.818,7.014
					c-0.466-0.471-1.053-0.704-1.764-0.704c-0.703,0-1.285,0.247-1.743,0.737c-0.446,0.478-0.672,1.069-0.672,1.781
					c0,0.682,0.231,1.261,0.698,1.736c0.476,0.481,1.055,0.724,1.735,0.724c0.705,0,1.29-0.238,1.754-0.716
					c0.458-0.476,0.69-1.068,0.69-1.78C118.518,8.077,118.283,7.485,117.818,7.014z"/>
				<path fill="#0194C8" d="M130.218,13.685V8.345c0-0.636-0.093-1.108-0.274-1.418c-0.234-0.399-0.65-0.603-1.254-0.603
					c-0.638,0-1.086,0.194-1.35,0.585c-0.219,0.321-0.327,0.808-0.327,1.463v5.313h-2.923V3.91h2.726v1.041h0.044
					c0.562-0.917,1.445-1.375,2.656-1.375c0.99,0,1.825,0.284,2.5,0.855c0.426,0.355,0.729,0.832,0.911,1.435
					c0.146,0.469,0.217,1.042,0.217,1.71v6.112L130.218,13.685L130.218,13.685z"/>
				<path fill="#0194C8" d="M141.869,13.685V8.373c0-0.613-0.103-1.086-0.31-1.419c-0.256-0.419-0.681-0.628-1.265-0.628
					c-0.591,0-1.021,0.184-1.288,0.55c-0.231,0.316-0.344,0.777-0.344,1.383v5.426h-2.924V0.653h2.924v4.161h0.032
					c0.241-0.431,0.604-0.751,1.083-0.963c0.413-0.185,0.893-0.275,1.436-0.275c1.156,0,2.043,0.359,2.657,1.076
					c0.418,0.481,0.69,1.045,0.811,1.695c0.051,0.258,0.081,0.563,0.095,0.909c0.006,0.139,0.012,0.298,0.018,0.481v5.95
					L141.869,13.685L141.869,13.685z"/>
			</g>
		</g>
	</g>
	<g>
		<g>
			<path fill="#6D6D6D" d="M103.234,26.266c-0.342,0.278-0.801,0.418-1.377,0.418c-0.588,0-1.062-0.146-1.421-0.439
				c-0.387-0.313-0.581-0.754-0.581-1.325v-0.181h1.409c0,0.206,0.045,0.378,0.135,0.517c0.104,0.163,0.251,0.243,0.443,0.243
				c0.359,0,0.538-0.178,0.538-0.532c0-0.161-0.062-0.291-0.186-0.392c-0.049-0.038-0.113-0.077-0.19-0.116l-0.107-0.052
				l-0.604-0.261c-0.2-0.082-0.373-0.166-0.516-0.252c-0.171-0.1-0.315-0.209-0.433-0.326c-0.271-0.275-0.406-0.613-0.406-1.011
				c0-0.489,0.205-0.892,0.615-1.205c0.376-0.285,0.817-0.428,1.325-0.428c0.286,0,0.559,0.053,0.819,0.154
				c0.284,0.112,0.511,0.271,0.683,0.477c0.229,0.282,0.351,0.647,0.365,1.094h-1.401c-0.055-0.361-0.225-0.541-0.51-0.541
				c-0.325,0-0.486,0.145-0.486,0.434c0,0.104,0.016,0.183,0.05,0.235c0.057,0.096,0.228,0.212,0.51,0.352l0.585,0.264
				c0.205,0.094,0.377,0.182,0.513,0.267c0.167,0.104,0.304,0.212,0.41,0.326c0.25,0.264,0.374,0.597,0.374,0.997
				C103.791,25.538,103.605,25.965,103.234,26.266z"/>
			<path fill="#6D6D6D" d="M104.689,26.577v-5.551h1.417v5.551H104.689z"/>
			<path fill="#6D6D6D" d="M110.783,26.577l-2.112-3.375l-0.019,0.007l0.041,3.368h-1.358v-5.551h1.223l2.146,3.489l0.015-0.015
				l-0.063-3.475h1.358v5.551H110.783z"/>
			<path fill="#6D6D6D" d="M118.752,24.501c-0.16,0.652-0.502,1.179-1.021,1.582c-0.515,0.399-1.109,0.601-1.782,0.601
				c-0.81,0-1.501-0.279-2.069-0.836c-0.571-0.559-0.856-1.243-0.856-2.053c0-0.809,0.282-1.49,0.849-2.047
				c0.564-0.55,1.251-0.824,2.062-0.824c1.055,0,1.869,0.435,2.441,1.304c0.201,0.3,0.327,0.604,0.378,0.907h-1.486
				c-0.246-0.644-0.694-0.966-1.34-0.966c-0.438,0-0.798,0.162-1.08,0.486c-0.271,0.313-0.407,0.69-0.407,1.133
				c0,0.446,0.137,0.827,0.407,1.146c0.285,0.336,0.647,0.505,1.087,0.505c0.605,0,1.05-0.313,1.333-0.938H118.752z"/>
			<path fill="#6D6D6D" d="M119.71,26.577v-5.551h3.082v1.245h-1.725v0.863h1.67v1.245h-1.67v0.952h1.725v1.245H119.71z"/>
			<path fill="#6D6D6D" d="M126.311,26.577v-1.102c0.183-0.121,0.335-0.222,0.458-0.305c0.16-0.109,0.307-0.214,0.436-0.314
				c0.307-0.237,0.575-0.48,0.801-0.732c0.093-0.1,0.18-0.199,0.258-0.3c0.095-0.123,0.177-0.241,0.248-0.355
				c0.173-0.285,0.26-0.539,0.26-0.762c0-0.359-0.175-0.538-0.523-0.538c-0.229,0-0.396,0.095-0.501,0.281
				c-0.078,0.14-0.124,0.337-0.136,0.594h-1.352c0.008-0.268,0.032-0.489,0.073-0.663c0.049-0.219,0.135-0.424,0.256-0.611
				c0.182-0.277,0.43-0.492,0.744-0.641c0.294-0.136,0.614-0.205,0.967-0.205c0.38,0,0.721,0.079,1.021,0.234
				c0.329,0.171,0.571,0.418,0.725,0.74c0.095,0.215,0.143,0.427,0.143,0.636c0,0.286-0.058,0.569-0.172,0.85
				c-0.1,0.249-0.247,0.502-0.439,0.755c-0.158,0.211-0.356,0.431-0.594,0.662c-0.095,0.093-0.201,0.192-0.321,0.301
				c-0.084,0.078-0.189,0.172-0.318,0.281h1.881v1.194H126.311z"/>
			<path fill="#6D6D6D" d="M135.168,24.574c0,0.433-0.089,0.809-0.271,1.132c-0.194,0.342-0.48,0.599-0.859,0.771
				c-0.283,0.138-0.588,0.206-0.915,0.206c-0.287,0-0.57-0.058-0.847-0.173c-0.83-0.348-1.244-0.994-1.244-1.937V23.03
				c0-0.959,0.417-1.606,1.253-1.939c0.282-0.11,0.563-0.166,0.838-0.166c0.285,0,0.568,0.061,0.85,0.18
				c0.798,0.35,1.196,0.991,1.196,1.926V24.574z M133.751,22.992c0-0.246-0.044-0.438-0.131-0.574
				c-0.11-0.166-0.283-0.249-0.521-0.249c-0.223,0-0.393,0.084-0.508,0.252c-0.095,0.145-0.144,0.335-0.144,0.571v1.619
				c0,0.239,0.049,0.431,0.144,0.574c0.113,0.168,0.282,0.253,0.508,0.253c0.238,0,0.411-0.084,0.521-0.249
				c0.087-0.14,0.131-0.332,0.131-0.578V22.992z"/>
			<path fill="#6D6D6D" d="M140.025,24.574c0,0.433-0.092,0.809-0.271,1.132c-0.194,0.342-0.481,0.599-0.859,0.771
				c-0.284,0.138-0.589,0.206-0.916,0.206c-0.289,0-0.57-0.058-0.847-0.173c-0.829-0.348-1.244-0.994-1.244-1.937V23.03
				c0-0.959,0.418-1.606,1.251-1.939c0.284-0.11,0.563-0.166,0.84-0.166c0.285,0,0.568,0.061,0.849,0.18
				c0.799,0.35,1.198,0.991,1.198,1.926V24.574z M138.608,22.992c0-0.246-0.044-0.438-0.132-0.574
				c-0.11-0.166-0.284-0.249-0.521-0.249c-0.224,0-0.395,0.084-0.509,0.252c-0.095,0.145-0.143,0.335-0.143,0.571v1.619
				c0,0.239,0.048,0.431,0.143,0.574c0.112,0.168,0.281,0.253,0.509,0.253c0.236,0,0.41-0.084,0.521-0.249
				c0.088-0.14,0.132-0.332,0.132-0.578V22.992z"/>
			<path fill="#6D6D6D" d="M140.88,26.577v-1.102c0.183-0.121,0.336-0.222,0.458-0.305c0.161-0.109,0.305-0.214,0.436-0.314
				c0.307-0.237,0.574-0.48,0.802-0.732c0.093-0.1,0.178-0.199,0.256-0.3c0.097-0.123,0.179-0.241,0.25-0.355
				c0.173-0.285,0.259-0.539,0.259-0.762c0-0.359-0.174-0.538-0.523-0.538c-0.229,0-0.396,0.095-0.501,0.281
				c-0.078,0.14-0.124,0.337-0.137,0.594h-1.35c0.007-0.268,0.031-0.489,0.073-0.663c0.048-0.219,0.134-0.424,0.256-0.611
				c0.181-0.277,0.429-0.492,0.743-0.641c0.292-0.136,0.615-0.205,0.967-0.205c0.38,0,0.721,0.079,1.021,0.234
				c0.329,0.171,0.571,0.418,0.726,0.74c0.095,0.215,0.142,0.427,0.142,0.636c0,0.286-0.057,0.569-0.172,0.85
				c-0.1,0.249-0.247,0.502-0.439,0.755c-0.158,0.211-0.355,0.431-0.593,0.662c-0.095,0.093-0.203,0.192-0.323,0.301
				c-0.082,0.078-0.188,0.172-0.317,0.281h1.882v1.194H140.88z"/>
		</g>
	</g>
</g>
</svg>
