<?xml version="1.0" encoding="utf-8"?>
<!-- Generator: Adobe Illustrator 21.1.0, SVG Export Plug-In . SVG Version: 6.00 Build 0)  -->
<svg version="1.1" id="Layer_1" xmlns="http://www.w3.org/2000/svg" xmlns:xlink="http://www.w3.org/1999/xlink" x="0px" y="0px"
	 viewBox="0 0 304 65" style="enable-background:new 0 0 304 65;" xml:space="preserve">
<style type="text/css">
	.st0{fill:#186557;}
	.st1{fill:#2BB46F;}
</style>
<g>
	<polygon class="st0" points="95.7,14.9 95.7,22.3 81.3,28.9 81.3,36.1 95.7,29.6 95.7,37.1 81.3,43.6 81.3,51.5 105,40.7 105,2.6 
		81.3,13.5 81.3,21.5 	"/>
	<polygon class="st1" points="66.9,14.9 66.9,22.3 81.3,28.9 81.3,36.1 66.9,29.6 66.9,37.1 81.3,43.6 81.3,51.5 57.6,40.7 
		57.6,2.6 81.3,13.5 81.3,21.5 	"/>
	<g>
		<path class="st0" d="M117.8,38.8v-21h12.3v1.9h-8.2v7.7h6.2v1.9h-6.2v7.6h8.2v1.9H117.8z"/>
		<path class="st0" d="M136.3,38.8c-1.2,0-2.1-0.4-2.9-1.1c-0.8-0.7-1.2-1.6-1.2-2.7V17.8h4.1V35c0,0.5,0.2,1,0.6,1.4
			c0.4,0.4,0.9,0.5,1.5,0.5c0.6,0,1-0.2,1.4-0.5c0.4-0.4,0.6-0.8,0.6-1.4V17.8h4.1V35c0,1.1-0.4,2-1.2,2.7c-0.8,0.7-1.8,1.1-2.9,1.1
			H136.3z M136.3,38.3L136.3,38.3L136.3,38.3z"/>
		<path class="st0" d="M146.6,38.8v-21h8.2c1.1,0,2.1,0.4,2.9,1.1c0.8,0.7,1.2,1.6,1.2,2.7v3.8c0,1.1-0.4,2-1.2,2.7
			c-0.1,0.1-0.1,0.1-0.2,0.1c0.1,0.1,0.1,0.1,0.2,0.2c0.8,0.7,1.2,1.6,1.2,2.7v7.6h-4.1v-7.6c0-0.5-0.2-1-0.6-1.3
			c-0.4-0.4-0.9-0.6-1.4-0.6h-2.1v9.6H146.6z M152.8,27.4c0.6,0,1-0.2,1.4-0.5c0.4-0.4,0.6-0.8,0.6-1.4v-3.8c0-0.5-0.2-1-0.6-1.3
			c-0.4-0.4-0.9-0.6-1.4-0.6h-2.1v7.7H152.8z"/>
		<path class="st0" d="M165.1,38.8c-1.2,0-2.1-0.4-2.9-1.1c-0.8-0.7-1.2-1.6-1.2-2.7V21.6c0-1.1,0.4-2,1.2-2.7
			c0.8-0.8,1.8-1.1,2.9-1.1h4.1c1.1,0,2.1,0.4,2.9,1.1c0.8,0.7,1.2,1.6,1.2,2.7V35c0,1.1-0.4,2-1.2,2.7c-0.8,0.7-1.8,1.1-2.9,1.1
			H165.1z M165.1,38.3L165.1,38.3L165.1,38.3z M168.7,36.4c0.4-0.4,0.6-0.8,0.6-1.4V21.6c0-0.5-0.2-1-0.6-1.3
			c-0.4-0.4-0.9-0.6-1.4-0.6c-0.6,0-1.1,0.2-1.5,0.6c-0.4,0.4-0.6,0.8-0.6,1.3V35c0,0.5,0.2,1,0.6,1.4c0.4,0.4,0.9,0.5,1.5,0.5
			C167.8,36.9,168.2,36.7,168.7,36.4z"/>
		<path class="st1" d="M180.9,38.8c-1.2,0-2.1-0.4-2.9-1.1c-0.8-0.7-1.2-1.6-1.2-2.7v-1.9h4.1V35c0,0.5,0.2,1,0.6,1.4
			c0.4,0.4,0.9,0.5,1.5,0.5c0.6,0,1-0.2,1.4-0.5c0.4-0.4,0.6-0.8,0.6-1.4v-3.8c0-0.5-0.2-1-0.6-1.3c-0.4-0.4-0.9-0.6-1.4-0.6h-2.1
			c-1.2,0-2.1-0.4-2.9-1.1c-0.8-0.7-1.2-1.6-1.2-2.7v-3.8c0-1.1,0.4-2,1.2-2.7c0.8-0.8,1.8-1.1,2.9-1.1h4.1c1.1,0,2.1,0.4,2.9,1.1
			c0.8,0.7,1.2,1.6,1.2,2.7v1.9H185v-1.9c0-0.5-0.2-1-0.6-1.3c-0.4-0.4-0.9-0.6-1.4-0.6c-0.6,0-1.1,0.2-1.5,0.6
			c-0.4,0.4-0.6,0.8-0.6,1.3v3.8c0,0.5,0.2,1,0.6,1.4c0.4,0.4,0.9,0.5,1.5,0.5h2.1c1.1,0,2.1,0.4,2.9,1.1c0.8,0.7,1.2,1.6,1.2,2.7
			V35c0,1.1-0.4,2-1.2,2.7c-0.8,0.7-1.8,1.1-2.9,1.1H180.9z M180.8,38.3L180.8,38.3L180.8,38.3z"/>
		<path class="st1" d="M191.2,38.8v-21h8.2c1.1,0,2.1,0.4,2.9,1.1c0.8,0.7,1.2,1.6,1.2,2.7v3.8c0,1.1-0.4,2-1.2,2.7
			c-0.8,0.7-1.8,1.1-2.9,1.1h-4.1v9.6H191.2z M197.3,27.4c0.6,0,1-0.2,1.4-0.5c0.4-0.4,0.6-0.8,0.6-1.4v-3.8c0-0.5-0.2-1-0.6-1.3
			c-0.4-0.4-0.9-0.6-1.4-0.6h-2.1v7.7H197.3z"/>
		<path class="st1" d="M205.6,38.8V21.6c0-1.1,0.4-2,1.2-2.7c0.8-0.8,1.8-1.1,2.9-1.1h4.1c1.1,0,2.1,0.4,2.9,1.1
			c0.8,0.7,1.2,1.6,1.2,2.7v17.2h-4.1v-9.6h-4.1v9.6H205.6z M213.8,27.4v-5.7c0-0.5-0.2-1-0.6-1.3c-0.4-0.4-0.9-0.6-1.4-0.6
			c-0.6,0-1.1,0.2-1.5,0.6c-0.4,0.4-0.6,0.8-0.6,1.3v5.7H213.8z"/>
		<path class="st1" d="M224.1,38.8c-1.2,0-2.1-0.4-2.9-1.1c-0.8-0.7-1.2-1.6-1.2-2.7V21.6c0-1.1,0.4-2,1.2-2.7
			c0.8-0.8,1.8-1.1,2.9-1.1h4.1c1.1,0,2.1,0.4,2.9,1.1c0.8,0.7,1.2,1.6,1.2,2.7v1.9h-4.1v-1.9c0-0.5-0.2-1-0.6-1.3
			c-0.4-0.4-0.9-0.6-1.4-0.6c-0.6,0-1.1,0.2-1.5,0.6c-0.4,0.4-0.6,0.8-0.6,1.3V35c0,0.5,0.2,1,0.6,1.4c0.4,0.4,0.9,0.5,1.5,0.5
			c0.6,0,1-0.2,1.4-0.5c0.4-0.4,0.6-0.8,0.6-1.4v-1.9h4.1V35c0,1.1-0.4,2-1.2,2.7c-0.8,0.7-1.8,1.1-2.9,1.1H224.1z M224.1,38.3
			L224.1,38.3L224.1,38.3z"/>
		<path class="st1" d="M234.4,38.8v-21h12.3v1.9h-8.2v7.7h6.2v1.9h-6.2v7.6h8.2v1.9H234.4z"/>
	</g>
	<polygon class="st1" points="122.8,44.9 123.9,48.4 127.6,48.4 124.6,50.6 125.7,54 122.8,51.9 119.8,54 121,50.6 118,48.4 
		121.7,48.4 	"/>
	<polygon class="st1" points="134.2,44.9 135.4,48.4 139,48.4 136.1,50.6 137.2,54 134.2,51.9 131.3,54 132.4,50.6 129.5,48.4 
		133.1,48.4 	"/>
	<polygon class="st1" points="231.5,44.9 232.6,48.4 236.3,48.4 233.3,50.6 234.4,54 231.5,51.9 228.5,54 229.7,50.6 226.7,48.4 
		230.4,48.4 	"/>
	<polygon class="st1" points="242.9,44.9 244.1,48.4 247.7,48.4 244.8,50.6 245.9,54 242.9,51.9 240,54 241.1,50.6 238.2,48.4 
		241.8,48.4 	"/>
	<polygon class="st0" points="66.1,50.2 66.1,43.4 81.3,36.8 81.3,28.9 66.1,35.4 66.1,28 81.3,21.5 81.3,13.5 56.3,24.3 56.3,62.4 
		81.3,51.5 81.3,43.6 	"/>
	<polygon class="st1" points="96.5,50.2 96.5,43.4 81.3,36.8 81.3,28.9 96.5,35.4 96.5,28 81.3,21.5 81.3,13.5 106.3,24.3 
		106.3,62.4 81.3,51.5 81.3,43.6 	"/>
	<g>
		<path class="st0" d="M146.2,52.5c-0.6,1.1-1.5,1.6-2.6,1.6c-0.8,0-1.5-0.3-2.1-0.9c-0.6-0.6-0.9-1.3-0.9-2.1
			c0-0.8,0.3-1.5,0.9-2.1c0.6-0.6,1.3-0.9,2.1-0.9c0.9,0,1.7,0.3,2.3,1c0.2,0.2,0.3,0.4,0.4,0.5h-0.6c-0.5-0.7-1.1-1-2-1
			c-0.7,0-1.2,0.2-1.7,0.7c-0.5,0.5-0.7,1.1-0.7,1.7c0,0.6,0.2,1.2,0.7,1.7c0.5,0.5,1,0.7,1.7,0.7c0.4,0,0.8-0.1,1.1-0.3
			c0.3-0.2,0.6-0.4,0.9-0.8H146.2z"/>
		<path class="st0" d="M150.7,50.4V54h-0.5v-0.7h0c-0.1,0.2-0.3,0.4-0.6,0.6c-0.2,0.1-0.5,0.2-0.8,0.2c-0.6,0-1.1-0.2-1.5-0.6
			c-0.1-0.2-0.2-0.4-0.3-0.6c0-0.2-0.1-0.4-0.1-0.7v-2.3h0.5v2.3c0,0.5,0.1,0.8,0.3,1.1c0.2,0.3,0.5,0.4,1,0.4
			c0.4,0,0.7-0.1,0.9-0.3c0.2-0.2,0.3-0.4,0.4-0.6c0.1-0.2,0.1-0.4,0.1-0.7v-2.2h0.5v0.1c0,0,0,0,0,0c0.1-0.1,0.1-0.2,0.2-0.3h-0.2
			V49h0.7v0.7c0,0.1,0,0.2-0.1,0.3c0,0.1-0.1,0.1-0.2,0.2c-0.1,0.1-0.1,0.1-0.2,0.1C150.9,50.3,150.8,50.4,150.7,50.4L150.7,50.4z
			 M149.6,48.6c0,0,0,0.1-0.1,0.1l0,0.1l-0.2,0.2c0,0-0.1,0.1-0.1,0.1c0,0.1-0.1,0.2-0.1,0.3h-0.5v-0.1c0-0.1,0-0.3,0.1-0.4
			c0,0,0.1-0.1,0.1-0.1c0,0,0.1-0.1,0.1-0.1l0.1-0.1c0,0,0.1-0.1,0.1-0.1c0-0.1,0.1-0.1,0.1-0.2c0-0.1,0-0.2-0.1-0.2
			c-0.1-0.1-0.1-0.1-0.2-0.1c-0.1,0-0.2,0.1-0.3,0.2c0,0,0,0.1,0,0.1c0,0,0,0.1,0,0.2h-0.5v-0.1c0-0.2,0.1-0.4,0.3-0.5
			c0.2-0.1,0.3-0.2,0.6-0.2c0.2,0,0.4,0.1,0.6,0.2c0.2,0.2,0.2,0.3,0.2,0.5C149.7,48.4,149.7,48.5,149.6,48.6z"/>
		<path class="st0" d="M155.5,54v-0.7h0c-0.4,0.6-0.9,0.8-1.6,0.8c-0.6,0-1.2-0.2-1.6-0.6c-0.4-0.4-0.7-1-0.7-1.6
			c0-0.6,0.2-1.2,0.7-1.6c0.4-0.4,1-0.6,1.6-0.6c0.7,0,1.3,0.3,1.6,0.8h0v-0.7h0.5V54H155.5z M155,50.7c-0.3-0.3-0.7-0.5-1.2-0.5
			c-0.5,0-0.9,0.2-1.2,0.5c-0.3,0.3-0.5,0.7-0.5,1.2c0,0.5,0.2,0.9,0.5,1.2c0.3,0.3,0.7,0.5,1.2,0.5c0.5,0,0.9-0.2,1.2-0.5
			c0.3-0.3,0.5-0.7,0.5-1.2C155.5,51.4,155.3,51,155,50.7z"/>
		<path class="st0" d="M162.3,54v-2.3c0-0.2,0-0.4-0.1-0.6c-0.1-0.2-0.2-0.4-0.3-0.5c-0.3-0.2-0.6-0.4-0.9-0.4
			c-0.4,0-0.7,0.1-0.9,0.4c-0.1,0.1-0.2,0.3-0.3,0.5c-0.1,0.2-0.1,0.4-0.1,0.6V54h-0.5v-4.2h0.5v0.5h0c0.3-0.4,0.7-0.6,1.3-0.6
			c0.6,0,1.1,0.2,1.4,0.6c0.3,0.4,0.5,0.8,0.5,1.4V54H162.3z"/>
		<path class="st0" d="M167,54v-2.3c0-0.2,0-0.4-0.1-0.6c-0.1-0.2-0.2-0.4-0.3-0.5c-0.3-0.2-0.6-0.4-0.9-0.4c-0.4,0-0.7,0.1-0.9,0.4
			c-0.1,0.1-0.2,0.3-0.3,0.5c-0.1,0.2-0.1,0.4-0.1,0.6V54h-0.5v-5.7h0.5v2h0c0.3-0.4,0.7-0.6,1.3-0.6c0.6,0,1.1,0.2,1.4,0.6
			c0.3,0.4,0.5,0.8,0.5,1.4V54H167z"/>
		<path class="st0" d="M172.2,50.4V54h-0.5v-0.7h0c-0.1,0.2-0.3,0.4-0.6,0.6c-0.2,0.1-0.5,0.2-0.8,0.2c-0.6,0-1.1-0.2-1.5-0.6
			c-0.1-0.2-0.2-0.4-0.3-0.6c0-0.2-0.1-0.4-0.1-0.7v-2.3h0.5v2.3c0,0.5,0.1,0.8,0.3,1.1c0.2,0.3,0.5,0.4,1,0.4
			c0.4,0,0.7-0.1,0.9-0.3c0.2-0.2,0.3-0.4,0.4-0.6c0.1-0.2,0.1-0.4,0.1-0.7v-2.2h0.5v0.1c0,0,0,0,0,0c0.1-0.1,0.1-0.2,0.2-0.3h-0.2
			V49h0.7v0.7c0,0.1,0,0.2-0.1,0.3c0,0.1-0.1,0.1-0.2,0.2c-0.1,0.1-0.1,0.1-0.2,0.1C172.4,50.3,172.3,50.4,172.2,50.4L172.2,50.4z
			 M170.3,55.5v-1h0.6v1H170.3z"/>
		<path class="st0" d="M177,54v-0.7h0c-0.4,0.6-0.9,0.8-1.6,0.8c-0.6,0-1.2-0.2-1.6-0.6c-0.4-0.4-0.7-1-0.7-1.6
			c0-0.6,0.2-1.2,0.7-1.6c0.4-0.4,1-0.6,1.6-0.6c0.7,0,1.3,0.3,1.6,0.8h0v-0.7h0.5V54H177z M176.5,50.7c-0.3-0.3-0.7-0.5-1.2-0.5
			c-0.5,0-0.9,0.2-1.2,0.5c-0.3,0.3-0.5,0.7-0.5,1.2c0,0.5,0.2,0.9,0.5,1.2c0.3,0.3,0.7,0.5,1.2,0.5c0.5,0,0.9-0.2,1.2-0.5
			c0.3-0.3,0.5-0.7,0.5-1.2C177,51.4,176.8,51,176.5,50.7z"/>
		<path class="st0" d="M180.3,52.1v-0.5h2.1v0.5H180.3z"/>
		<path class="st0" d="M190.8,52.5c-0.6,1.1-1.5,1.6-2.6,1.6c-0.8,0-1.5-0.3-2.1-0.9c-0.6-0.6-0.9-1.3-0.9-2.1
			c0-0.8,0.3-1.5,0.9-2.1c0.6-0.6,1.3-0.9,2.1-0.9c0.9,0,1.7,0.3,2.3,1c0.2,0.2,0.3,0.4,0.4,0.5h-0.6c-0.5-0.7-1.1-1-2-1
			c-0.7,0-1.2,0.2-1.7,0.7c-0.5,0.5-0.7,1.1-0.7,1.7c0,0.6,0.2,1.2,0.7,1.7c0.5,0.5,1,0.7,1.7,0.7c0.4,0,0.8-0.1,1.1-0.3
			c0.3-0.2,0.6-0.4,0.9-0.8H190.8z"/>
		<path class="st0" d="M195.3,50.4V54h-0.5v-0.7h0c-0.1,0.2-0.3,0.4-0.6,0.6c-0.2,0.1-0.5,0.2-0.8,0.2c-0.6,0-1.1-0.2-1.5-0.6
			c-0.1-0.2-0.2-0.4-0.3-0.6c0-0.2-0.1-0.4-0.1-0.7v-2.3h0.5v2.3c0,0.5,0.1,0.8,0.3,1.1c0.2,0.3,0.5,0.4,1,0.4
			c0.4,0,0.7-0.1,0.9-0.3c0.2-0.2,0.3-0.4,0.4-0.6c0.1-0.2,0.1-0.4,0.1-0.7v-2.2h0.5v0.1c0,0,0,0,0,0c0.1-0.1,0.1-0.2,0.2-0.3h-0.2
			V49h0.7v0.7c0,0.1,0,0.2-0.1,0.3c0,0.1-0.1,0.1-0.2,0.2c-0.1,0.1-0.1,0.1-0.2,0.1C195.4,50.3,195.3,50.4,195.3,50.4L195.3,50.4z
			 M194.2,48.6c0,0,0,0.1-0.1,0.1l0,0.1l-0.2,0.2c0,0-0.1,0.1-0.1,0.1c0,0.1-0.1,0.2-0.1,0.3h-0.5v-0.1c0-0.1,0-0.3,0.1-0.4
			c0,0,0.1-0.1,0.1-0.1c0,0,0.1-0.1,0.1-0.1l0.1-0.1c0,0,0.1-0.1,0.1-0.1c0-0.1,0.1-0.1,0.1-0.2c0-0.1,0-0.2-0.1-0.2
			c-0.1-0.1-0.1-0.1-0.2-0.1c-0.1,0-0.2,0.1-0.3,0.2c0,0,0,0.1,0,0.1c0,0,0,0.1,0,0.2h-0.5v-0.1c0-0.2,0.1-0.4,0.3-0.5
			c0.2-0.1,0.3-0.2,0.6-0.2c0.2,0,0.4,0.1,0.6,0.2c0.2,0.2,0.2,0.3,0.2,0.5C194.3,48.4,194.2,48.5,194.2,48.6z"/>
		<path class="st0" d="M200,54v-0.7h0c-0.4,0.6-0.9,0.8-1.6,0.8c-0.6,0-1.2-0.2-1.6-0.6c-0.4-0.4-0.7-1-0.7-1.6
			c0-0.6,0.2-1.2,0.7-1.6c0.4-0.4,1-0.6,1.6-0.6c0.7,0,1.3,0.3,1.6,0.8h0v-0.7h0.5V54H200z M199.6,50.7c-0.3-0.3-0.7-0.5-1.2-0.5
			c-0.5,0-0.9,0.2-1.2,0.5c-0.3,0.3-0.5,0.7-0.5,1.2c0,0.5,0.2,0.9,0.5,1.2c0.3,0.3,0.7,0.5,1.2,0.5c0.5,0,0.9-0.2,1.2-0.5
			c0.3-0.3,0.5-0.7,0.5-1.2C200.1,51.4,199.9,51,199.6,50.7z"/>
		<path class="st0" d="M206.8,54v-2.3c0-0.2,0-0.4-0.1-0.6c-0.1-0.2-0.2-0.4-0.3-0.5c-0.3-0.2-0.6-0.4-0.9-0.4
			c-0.4,0-0.7,0.1-0.9,0.4c-0.1,0.1-0.2,0.3-0.3,0.5c-0.1,0.2-0.1,0.4-0.1,0.6V54h-0.5v-4.2h0.5v0.5h0c0.3-0.4,0.7-0.6,1.3-0.6
			c0.6,0,1.1,0.2,1.4,0.6c0.3,0.4,0.5,0.8,0.5,1.4V54H206.8z"/>
		<path class="st0" d="M211.5,54v-2.3c0-0.2,0-0.4-0.1-0.6c-0.1-0.2-0.2-0.4-0.3-0.5c-0.3-0.2-0.6-0.4-0.9-0.4
			c-0.4,0-0.7,0.1-0.9,0.4c-0.1,0.1-0.2,0.3-0.3,0.5c-0.1,0.2-0.1,0.4-0.1,0.6V54h-0.5v-5.7h0.5v2h0c0.3-0.4,0.7-0.6,1.3-0.6
			c0.6,0,1.1,0.2,1.4,0.6c0.3,0.4,0.5,0.8,0.5,1.4V54H211.5z"/>
		<path class="st0" d="M216.7,53.5c-0.4,0.4-1,0.7-1.6,0.7c-0.6,0-1.1-0.2-1.5-0.6c-0.4-0.4-0.7-0.9-0.7-1.5c0-0.6,0.2-1.1,0.6-1.6
			c0.4-0.4,0.9-0.7,1.6-0.7c0.6,0,1.1,0.2,1.6,0.7c0.4,0.4,0.7,1,0.7,1.6C217.3,52.5,217.1,53,216.7,53.5z M216.3,50.7
			c-0.3-0.3-0.7-0.5-1.2-0.5c-0.5,0-0.9,0.2-1.2,0.5c-0.3,0.3-0.5,0.7-0.5,1.2c0,0.5,0.2,0.9,0.5,1.2c0.3,0.3,0.7,0.5,1.2,0.5
			c0.5,0,0.9-0.2,1.2-0.5c0.3-0.3,0.5-0.7,0.5-1.2C216.8,51.4,216.6,51,216.3,50.7z M215.8,49.1l-0.7-0.6l-0.7,0.6h-0.7l1.1-1h0.5
			l1.1,1H215.8z"/>
		<path class="st0" d="M223.8,54v-2.4c0-0.4-0.1-0.7-0.3-1c-0.2-0.3-0.5-0.4-0.9-0.4c-0.4,0-0.7,0.1-0.9,0.4c-0.2,0.2-0.3,0.6-0.3,1
			V54H221v-2.4c0-0.4-0.1-0.7-0.3-1c-0.2-0.3-0.5-0.4-0.9-0.4c-0.4,0-0.7,0.1-0.9,0.4c-0.2,0.2-0.3,0.6-0.3,1V54h-0.5v-4.2h0.5v0.5
			c0.3-0.4,0.6-0.6,1.2-0.6c0.6,0,1.1,0.3,1.4,0.8c0.3-0.5,0.8-0.8,1.4-0.8c0.5,0,0.9,0.2,1.3,0.5c0.3,0.3,0.4,0.8,0.4,1.3V54H223.8
			z"/>
	</g>
</g>
</svg>
