<?xml version="1.0" encoding="utf-8"?>
<!-- Generator: Adobe Illustrator 16.0.0, SVG Export Plug-In . SVG Version: 6.00 Build 0)  -->
<!DOCTYPE svg PUBLIC "-//W3C//DTD SVG 1.1//EN" "http://www.w3.org/Graphics/SVG/1.1/DTD/svg11.dtd">
<svg version="1.1" id="Layer_1" xmlns="http://www.w3.org/2000/svg" xmlns:xlink="http://www.w3.org/1999/xlink" x="0px" y="0px"
	 width="145px" height="28.688px" viewBox="0 0 145 28.688" enable-background="new 0 0 145 28.688" xml:space="preserve">
<g>
	<g>
		<g>
			<linearGradient id="SVGID_1_" gradientUnits="userSpaceOnUse" x1="80.6934" y1="25.6995" x2="12.0282" y2="24.6995">
				<stop  offset="0" style="stop-color:#9FE2FC"/>
				<stop  offset="1" style="stop-color:#0194C8"/>
			</linearGradient>
			<path fill="url(#SVGID_1_)" d="M37.806,25.933c0,0-6.231,1.761-12.377,1.368c-6.145-0.391-9.096-1.148-9.096-1.148
				s-7.975-1.933-9.511-2.301c-1.536-0.367-6.435-1.084-6.435-1.084s5.564-0.952,12.457-0.367
				c6.894,0.585,15.283,2.301,17.482,2.646C32.529,25.391,37.806,25.933,37.806,25.933"/>
			<linearGradient id="SVGID_2_" gradientUnits="userSpaceOnUse" x1="80.71" y1="24.636" x2="12.043" y2="23.636">
				<stop  offset="0" style="stop-color:#9FE2FC"/>
				<stop  offset="1" style="stop-color:#0194C8"/>
			</linearGradient>
			<path fill="url(#SVGID_2_)" d="M3.044,21.212c0,0,5.815-1.345,14.203-1.365c8.391-0.021,18.33,0.902,23.756,1.519
				c4.637,0.526,19.394,2.675,25.916,3.45c3.523,0.418,10.922,0.976,14.201,1.018c3.281,0.045,8.066-0.345,8.066-0.345
				s-3.578,1.435-9.146,2.113c-5.563,0.684-14.91,1.188-24.793,0c-9.884-1.183-18.022-3.155-25.832-4.326
				c-7.808-1.173-10.633-1.497-15.574-1.934C8.899,20.909,3.044,21.212,3.044,21.212"/>
			<linearGradient id="SVGID_3_" gradientUnits="userSpaceOnUse" x1="80.7637" y1="20.9788" x2="12.0967" y2="19.9787">
				<stop  offset="0" style="stop-color:#9FE2FC"/>
				<stop  offset="1" style="stop-color:#0194C8"/>
			</linearGradient>
			<path fill="url(#SVGID_3_)" d="M1.755,19.932c0,0,2.869-1.041,9.347-2.19c6.478-1.148,15.698-1.433,22.384-1.236
				s18.979,1.584,18.979,1.584l16.984,2.125c0,0,10.551,1.259,15.119,1.497c4.563,0.239,8.637-0.195,10.879-0.651
				c0,0-3.072,3.494-12.582,3.712c-7.857,0.181-19.521-1.563-19.521-1.563s-20.18-2.646-24.834-3.167
				c-4.65-0.52-14.906-1.584-21.717-1.302C9.98,19.022,5.247,19.109,1.755,19.932"/>
		</g>
	</g>
	<g>
		<g>
			<g>
				<path fill="#0194C8" d="M8.331,12.847c-0.799,0.649-1.871,0.977-3.216,0.977c-1.374,0-2.479-0.342-3.317-1.026
					c-0.905-0.729-1.358-1.762-1.358-3.095v-0.42h3.292c0,0.479,0.105,0.88,0.316,1.206c0.24,0.376,0.584,0.563,1.035,0.563
					c0.838,0,1.256-0.414,1.256-1.24c0-0.376-0.146-0.681-0.436-0.913C5.788,8.805,5.64,8.715,5.458,8.623L5.21,8.503L3.798,7.897
					C3.331,7.703,2.929,7.506,2.593,7.306c-0.399-0.231-0.735-0.485-1.008-0.76c-0.633-0.644-0.949-1.431-0.949-2.36
					c0-1.146,0.479-2.083,1.436-2.813c0.878-0.667,1.91-1,3.096-1c0.666,0,1.305,0.12,1.914,0.359
					c0.662,0.262,1.192,0.633,1.59,1.109c0.537,0.662,0.822,1.515,0.855,2.559H6.253C6.128,3.556,5.731,3.134,5.064,3.134
					c-0.758,0-1.138,0.339-1.138,1.02c0,0.237,0.041,0.422,0.121,0.547c0.129,0.222,0.525,0.496,1.187,0.818l1.369,0.616
					C7.083,6.352,7.48,6.56,7.8,6.759c0.389,0.24,0.707,0.493,0.959,0.761C9.341,8.136,9.63,8.912,9.63,9.846
					C9.63,11.145,9.196,12.147,8.331,12.847z"/>
				<path fill="#0194C8" d="M11.6,2.826V0.613h2.907v2.214H11.6z M11.6,13.573V3.852h2.907v9.723L11.6,13.573L11.6,13.573z"/>
				<path fill="#0194C8" d="M26.763,9.598h-7.284c0.183,1.228,0.94,1.838,2.274,1.838c0.694,0,1.285-0.302,1.77-0.904h2.975
					c-0.433,1.009-1.054,1.813-1.863,2.411c-0.861,0.633-1.821,0.947-2.881,0.947c-1.42,0-2.631-0.504-3.635-1.513
					c-1.009-1.003-1.513-2.215-1.513-3.634c0-1.425,0.493-2.647,1.479-3.668c0.998-1.038,2.203-1.558,3.617-1.558
					c1.471,0,2.698,0.521,3.684,1.558c0.964,1.021,1.445,2.271,1.445,3.753C26.831,9.109,26.808,9.365,26.763,9.598z M23.923,7.64
					c-0.239-1.109-0.975-1.667-2.205-1.667c-1.231,0-1.967,0.558-2.207,1.667H23.923z"/>
				<path fill="#0194C8" d="M35.214,13.573v-1.035h-0.035c-0.238,0.496-0.586,0.853-1.043,1.069c-0.393,0.188-0.885,0.28-1.479,0.28
					c-1.236,0-2.189-0.406-2.855-1.223c-0.365-0.456-0.607-0.929-0.728-1.419c-0.097-0.37-0.146-0.897-0.146-1.582V3.852h2.906v5.38
					c0,0.627,0.098,1.089,0.291,1.385c0.239,0.371,0.662,0.556,1.266,0.556c1.111,0,1.667-0.659,1.667-1.975V3.852h2.907v9.723
					L35.214,13.573L35.214,13.573z"/>
				<path fill="#0194C8" d="M44.074,6.058v7.517h-2.907V6.058H39.73V3.852h1.437V0.613h2.907v3.238h1.402v2.206L44.074,6.058
					L44.074,6.058z"/>
				<path fill="#0194C8" d="M53.347,13.573V8.29c0-0.61-0.104-1.08-0.309-1.411c-0.256-0.416-0.675-0.624-1.256-0.624
					c-0.587,0-1.015,0.185-1.283,0.547c-0.228,0.313-0.342,0.772-0.342,1.376v5.396h-2.906V0.613h2.906V4.75h0.034
					c0.239-0.428,0.599-0.747,1.077-0.958c0.41-0.182,0.886-0.273,1.428-0.273c1.151,0,2.032,0.356,2.643,1.069
					c0.416,0.479,0.684,1.04,0.804,1.686c0.051,0.257,0.083,0.559,0.094,0.904c0.007,0.138,0.013,0.297,0.017,0.479v5.917
					L53.347,13.573L53.347,13.573z"/>
				<path fill="#0194C8" d="M58.839,2.826V0.613h2.908v2.214H58.839z M58.839,13.573V3.852h2.908v9.723L58.839,13.573L58.839,13.573
					z"/>
				<path fill="#0194C8" d="M76.378,13.573V8.409c0-0.667-0.08-1.16-0.238-1.479c-0.229-0.448-0.645-0.676-1.248-0.676
					c-0.6,0-1.029,0.197-1.291,0.59c-0.217,0.325-0.324,0.798-0.324,1.419v5.312H70.37V8.29c0-0.604-0.089-1.069-0.266-1.394
					c-0.234-0.43-0.63-0.644-1.188-0.644c-0.615,0-1.059,0.217-1.326,0.65c-0.211,0.342-0.315,0.844-0.315,1.505v5.164h-2.907V3.852
					h2.711v1.035h0.041c0.262-0.473,0.639-0.822,1.129-1.052c0.438-0.211,0.955-0.316,1.549-0.316c1.242,0,2.177,0.579,2.804,1.736
					c0.729-1.157,1.755-1.736,3.077-1.736c1.066,0,1.92,0.328,2.559,0.983c0.49,0.501,0.805,1.083,0.939,1.744
					c0.053,0.271,0.084,0.596,0.104,0.966c0.006,0.145,0.01,0.314,0.01,0.513v5.85L76.378,13.573L76.378,13.573z"/>
				<path fill="#0194C8" d="M89.157,13.573v-1.052h-0.035c-0.244,0.468-0.652,0.822-1.223,1.067
					c-0.49,0.211-1.029,0.316-1.615,0.316c-1.465,0-2.654-0.504-3.566-1.515c-0.877-0.979-1.314-2.209-1.314-3.685
					c0-1.454,0.447-2.673,1.344-3.66c0.928-1.02,2.107-1.53,3.539-1.53c0.58,0,1.115,0.108,1.605,0.325
					c0.549,0.24,0.959,0.587,1.23,1.043h0.035V3.852h2.906v9.723L89.157,13.573L89.157,13.573z M88.464,6.94
					c-0.461-0.469-1.045-0.701-1.754-0.701c-0.701,0-1.277,0.245-1.734,0.733C84.53,7.447,84.31,8.035,84.31,8.743
					c0,0.678,0.229,1.254,0.691,1.727c0.473,0.479,1.049,0.72,1.729,0.72c0.699,0,1.281-0.237,1.744-0.712
					c0.453-0.473,0.684-1.063,0.684-1.77C89.157,7.996,88.925,7.406,88.464,6.94z"/>
				<path fill="#0194C8" d="M98.821,16.815h-3.078l1.539-3.729l-3.607-9.234h3.096l1.949,5.645h0.033l1.855-5.645h3.08
					L98.821,16.815z"/>
				<path fill="#0194C8" d="M105.272,13.573V0.613h2.906v12.961H105.272z"/>
				<path fill="#0194C8" d="M118.103,13.573v-1.052h-0.035c-0.244,0.468-0.65,0.822-1.223,1.067
					c-0.49,0.211-1.029,0.316-1.615,0.316c-1.465,0-2.652-0.504-3.564-1.515c-0.879-0.979-1.314-2.209-1.314-3.685
					c0-1.454,0.445-2.673,1.342-3.66c0.93-1.02,2.107-1.53,3.539-1.53c0.582,0,1.117,0.108,1.605,0.325
					c0.549,0.24,0.959,0.587,1.23,1.043h0.035V3.852h2.906v9.723L118.103,13.573L118.103,13.573z M117.409,6.94
					c-0.463-0.469-1.047-0.701-1.754-0.701c-0.701,0-1.279,0.245-1.734,0.733c-0.445,0.475-0.668,1.063-0.668,1.771
					c0,0.678,0.23,1.254,0.693,1.727c0.473,0.479,1.049,0.72,1.727,0.72c0.701,0,1.283-0.237,1.744-0.712
					c0.455-0.473,0.686-1.063,0.686-1.77C118.103,7.996,117.87,7.406,117.409,6.94z"/>
				<path fill="#0194C8" d="M129.741,13.573V8.263c0-0.633-0.092-1.103-0.273-1.411c-0.232-0.397-0.648-0.599-1.248-0.599
					c-0.633,0-1.08,0.194-1.342,0.582c-0.217,0.319-0.326,0.804-0.326,1.454v5.284h-2.906V3.852h2.711v1.035h0.043
					c0.559-0.912,1.438-1.368,2.643-1.368c0.984,0,1.814,0.282,2.486,0.849c0.424,0.354,0.725,0.829,0.906,1.428
					c0.145,0.467,0.215,1.035,0.215,1.701v6.079L129.741,13.573L129.741,13.573z"/>
				<path fill="#0194C8" d="M141.329,13.573V8.29c0-0.61-0.102-1.08-0.307-1.411c-0.256-0.416-0.678-0.625-1.258-0.625
					c-0.588,0-1.016,0.183-1.281,0.547c-0.23,0.313-0.342,0.772-0.342,1.376v5.396h-2.908V0.613h2.908V4.75h0.031
					c0.24-0.428,0.602-0.747,1.078-0.958c0.41-0.182,0.887-0.273,1.428-0.273c1.15,0,2.031,0.356,2.643,1.069
					c0.416,0.479,0.686,1.04,0.805,1.686c0.051,0.257,0.082,0.559,0.094,0.904c0.006,0.139,0.012,0.297,0.018,0.479v5.917
					L141.329,13.573L141.329,13.573z"/>
			</g>
		</g>
	</g>
	<g>
		<g>
			<path fill="#0194C8" d="M108.253,27.281V24.9h2.424v2.382H108.253z"/>
			<path fill="#0194C8" d="M120.782,24.323c-0.225,0.949-0.715,1.723-1.473,2.318c-0.752,0.595-1.621,0.892-2.607,0.892
				c-1.164,0-2.145-0.404-2.949-1.211c-0.809-0.805-1.211-1.787-1.211-2.95c0-1.154,0.396-2.131,1.186-2.93
				c0.793-0.81,1.768-1.211,2.922-1.211c1.008,0,1.895,0.299,2.654,0.896c0.775,0.604,1.266,1.396,1.467,2.375h-2.355
				c-0.338-0.729-0.916-1.095-1.738-1.095c-0.543,0-0.979,0.198-1.313,0.595c-0.318,0.375-0.48,0.835-0.48,1.383
				c0,0.563,0.166,1.027,0.5,1.396c0.348,0.383,0.799,0.575,1.35,0.575c0.762,0,1.324-0.346,1.684-1.034L120.782,24.323
				L120.782,24.323z"/>
			<path fill="#0194C8" d="M129.294,26.343c-0.799,0.785-1.797,1.177-2.992,1.177c-1.193,0-2.188-0.393-2.982-1.177
				c-0.803-0.785-1.203-1.771-1.203-2.957c0-1.189,0.4-2.179,1.203-2.964c0.795-0.785,1.789-1.177,2.982-1.177
				c1.195,0,2.193,0.393,2.992,1.177c0.805,0.785,1.203,1.773,1.203,2.964C130.497,24.573,130.099,25.558,129.294,26.343z
				 M127.646,22.01c-0.359-0.392-0.809-0.588-1.344-0.588c-0.527,0-0.975,0.196-1.334,0.588c-0.352,0.379-0.525,0.837-0.525,1.376
				c0,0.534,0.176,0.993,0.525,1.376c0.359,0.39,0.807,0.582,1.334,0.582c0.535,0,0.982-0.192,1.344-0.582
				c0.352-0.383,0.525-0.842,0.525-1.376C128.171,22.847,127.995,22.389,127.646,22.01z"/>
			<path fill="#0194C8" d="M141.841,27.281v-4.134c0-0.534-0.063-0.93-0.189-1.186c-0.184-0.36-0.518-0.541-0.998-0.541
				s-0.824,0.157-1.033,0.472c-0.174,0.262-0.262,0.641-0.262,1.138v4.25h-2.326v-4.23c0-0.481-0.07-0.854-0.213-1.116
				c-0.188-0.342-0.504-0.513-0.951-0.513c-0.492,0-0.846,0.173-1.061,0.521c-0.172,0.272-0.256,0.675-0.256,1.205v4.134h-2.324
				v-7.782h2.17v0.828h0.031c0.213-0.378,0.514-0.659,0.904-0.842c0.354-0.169,0.766-0.253,1.238-0.253
				c0.994,0,1.742,0.463,2.246,1.39c0.584-0.926,1.402-1.39,2.463-1.39c0.854,0,1.535,0.263,2.047,0.785
				c0.393,0.402,0.643,0.867,0.752,1.396c0.041,0.219,0.068,0.477,0.082,0.771c0.006,0.114,0.008,0.253,0.008,0.411v4.684
				L141.841,27.281L141.841,27.281z"/>
		</g>
	</g>
</g>
</svg>
