<?xml version="1.0" encoding="utf-8"?>
<!-- Generator: Adobe Illustrator 21.1.0, SVG Export Plug-In . SVG Version: 6.00 Build 0)  -->
<svg version="1.1" id="Layer_1" xmlns="http://www.w3.org/2000/svg" xmlns:xlink="http://www.w3.org/1999/xlink" x="0px" y="0px"
	 viewBox="0 0 250 65" style="enable-background:new 0 0 250 65;" xml:space="preserve">
<style type="text/css">
	.st0{fill:#FF1D3E;}
	.st1{fill:#FFFFFF;}
	.st2{fill:#0246A8;}
	.st3{fill:#003F72;}
</style>
<g>
	<g>
		<g>
			<g>
				<g>
					<g>
						<path class="st0" d="M35.1,47.7h-6c-2.5,0-4.5-2-4.5-4.5V19c0-2.5,2-4.5,4.5-4.5h6c2.5,0,4.5,2,4.5,4.5v24.3
							C39.5,45.8,37.5,47.7,35.1,47.7z"/>
					</g>
					<g>
						<path class="st0" d="M15.6,34.1v-6c0-2.5,2-4.5,4.5-4.5h24.3c2.5,0,4.5,2,4.5,4.5v6c0,2.5-2,4.5-4.5,4.5H20
							C17.5,38.6,15.6,36.6,15.6,34.1z"/>
					</g>
				</g>
				<g>
					<g>
						<ellipse class="st1" cx="33.3" cy="23.5" rx="2" ry="2.4"/>
					</g>
					<g>
						<path class="st1" d="M39.4,17.3c0,0-1.1,7.9-5.1,9.8c-2.6,1.2-11-4.5-11-4.5s8,6,7.7,12.1c-0.3,7.1-5.9,13-5.9,13
							S42.7,41.1,39.4,17.3z"/>
					</g>
				</g>
			</g>
			<g>
				<g>
					<path class="st0" d="M36.1,56.1c-1.1,0-2.1-0.1-3.2-0.2c-1,0.1-2.1,0.2-3.2,0.2c-8.1,0-15.3-3.6-20.2-9.3
						c4.3,8.5,13.2,14.3,23.4,14.3c10.8,0,20-6.4,24.1-15.6C52.5,52,44.8,56.1,36.1,56.1z"/>
				</g>
				<g>
					<path class="st0" d="M12,18.7c3.7-8.2,11.6-14.3,20.9-15.4c-1-0.1-2.1-0.2-3.2-0.2C15.2,3.1,3.3,15,3.3,29.6
						c0,6.6,2.4,12.5,6.3,17.1C7.8,43.1,6.7,39,6.7,34.6C6.7,28.6,8.7,23.1,12,18.7z"/>
				</g>
				<g>
					<g>
						<path class="st2" d="M29.8,56.1c1.1,0,2.1-0.1,3.2-0.2C19.8,54.3,9.6,43.2,9.6,29.6c0-3.9,0.8-7.6,2.3-10.9
							c-3.4,4.5-5.3,9.9-5.3,16c0,4.4,1.1,8.5,2.9,12.1C14.5,52.5,21.7,56.1,29.8,56.1z"/>
					</g>
				</g>
				<g>
					<path class="st0" d="M53.4,17.5C57.3,22,59,28.1,59,34.6c0,3.9-0.1,7.6-1.6,10.9c3.4-4.5,4.7-9.9,4.7-16
						C61.9,15,50.7,3.1,36.1,3.1C35,3.1,34,3.2,33,3.3C41.8,4.4,49.4,9.8,53.4,17.5z"/>
				</g>
				<g>
					<g>
						<path class="st2" d="M53.4,17.5c1.9,3.6,2.9,7.7,2.9,12.1c0,13.6-10.2,24.8-23.3,26.3c1,0.1,2.1,0.2,3.2,0.2
							c8.6,0,16.3-4.1,21.1-10.6c1.5-3.4,1.6-7.1,1.6-10.9C58.9,28.1,57.3,22.1,53.4,17.5z"/>
					</g>
				</g>
				<g>
					<g>
						<path class="st2" d="M12,18.7c4.9-6.4,12.5-10.6,21.1-10.6c8.1,0,15.3,3.6,20.2,9.3C49.4,9.8,41.8,4.4,32.9,3.3
							C23.6,4.4,15.7,10.5,12,18.7z"/>
					</g>
				</g>
			</g>
		</g>
	</g>
	<g>
		<path class="st0" d="M190.8,52.9c-0.9,0-1.6,0.6-1.9,1.4h-4.3l-5.3-9c-0.1-0.1-0.3-0.2-0.4-0.2c-0.2,0-0.3,0.1-0.4,0.3l-5.1,10.1
			l-2.2-5.3c-0.1-0.1-0.2-0.3-0.4-0.3s-0.3,0.1-0.4,0.3L165,60.4l-5.8-10.9c-0.1-0.1-0.3-0.3-0.4-0.3c-0.2,0-0.3,0.1-0.4,0.3
			l-2.5,5.1H70.2c-0.3,0-0.5,0.2-0.5,0.5s0.2,0.5,0.5,0.5h86c0.2,0,0.3-0.1,0.4-0.3l2.2-4.5l5.8,10.9c0.1,0.1,0.3,0.3,0.4,0.3l0,0
			c0.2,0,0.3-0.1,0.4-0.3l5.2-9.9l2.2,5.3c0.1,0.2,0.2,0.3,0.4,0.3c0.2,0,0.3-0.1,0.4-0.3l5.2-10.3l5.1,8.5c0.1,0.1,0.3,0.2,0.4,0.2
			h4.6c0.2,0.8,1,1.4,1.9,1.4c1,0,1.9-0.8,1.9-1.9C192.7,53.7,191.9,52.9,190.8,52.9z"/>
		<g>
			<path class="st0" d="M208.4,44.7c0.8,0.2,1.1,0.8,0.8,1.3c-0.1,0.3-0.6,0.5-1.2,0.5c-0.3,0-0.6-0.1-0.8-0.1l0,0
				c-0.3-0.1-0.7-0.1-1-0.2c-3.2-0.1-5.2,2.9-5.2,6.1c0,1.1,0.1,2.5,1.4,3.2c0.7,0.4,1.4,0.5,2,0.5c0.5,0,1.1-0.1,1.6-0.2
				c0.8-0.1,1.3,0.3,1.1,0.8c-0.3,0.5-1,0.9-1.9,1c-0.4,0.1-0.9,0.1-1.4,0.1c-4.2-0.1-6.7-2.1-6.7-5.1c0.1-3.6,3.2-7.9,9.5-7.8
				C207.4,44.5,208,44.6,208.4,44.7z"/>
			<path class="st0" d="M221.1,45.9c1.4,1.2,1.4,2.5,1.4,3.2c-0.1,3.6-2.8,8.6-8.8,8.6c-1.5,0-3-0.4-4-1.2c-0.6-0.5-1.6-1.6-1.6-3.6
				c0.1-3.7,2.9-8.3,8.9-8.2C218.8,44.7,220.3,45.1,221.1,45.9z M218.1,46.9c-0.3-0.3-0.8-0.6-1.6-0.6c-3.8-0.1-4.8,5.2-4.8,7
				c-0.1,2.1,1,2.9,2.2,2.9c4.2,0.1,4.9-6.1,4.9-7.2C218.8,48.4,218.8,47.4,218.1,46.9z"/>
			<path class="st0" d="M240,45c1,0,3.3,0.3,3.3,2.4c0,0.5-0.1,1.1-0.3,1.9c-0.1,0.6-0.3,1.3-0.4,1.9c-0.1,0.6-0.3,1.3-0.5,1.9
				c-0.3,1.6-0.5,2.6-0.6,3.3c-0.1,0.8-1,1.2-2.1,1.2h-0.2c-1,0-1.6-0.6-1.4-1.2c0.1-0.4,0.3-1.2,0.5-2c0.1-0.7,0.3-1.4,0.5-2
				c0.1-0.7,0.3-1.4,0.4-2c0.2-0.8,0.3-1.7,0.3-2.1c0-1.2-0.1-1.4-0.5-1.4c-1,0-2.6,0.8-3.6,3c-0.7,1.8-1.3,5.1-1.4,6.4
				c-0.1,0.7-1,1.2-2.1,1.2c-1,0-1.8-0.6-1.6-1.2c0.3-0.7,0.5-1.7,0.8-3.4c0.1-0.5,0.2-1.1,0.3-1.6c0.3-1.4,0.5-2.5,0.5-3.2
				c0-1,0-1.4-0.6-1.4c-1.2,0-2.5,1.1-3.4,2.9c-0.6,1.5-1.3,5.1-1.5,6.6c-0.1,0.7-1,1.2-2.1,1.2h-0.2c-0.9,0-1.6-0.6-1.4-1.2
				c0.1-0.5,0.3-1,0.5-1.7c0-0.1,0.1-0.3,0.1-0.3l0,0c0.1-0.6,0.3-1.2,0.4-1.9c0.3-1.2,0.5-2.5,0.8-3.8c0.2-1,0.3-1.6,0.3-2
				c0-0.6,0.3-1.2,1.2-1.3c0.1,0,0.2,0,0.3,0c0.1,0,0.1,0,0.1,0c0.1,0,0.2-0.1,0.3-0.1c0.9-0.1,1.9,0.3,1.8,1c0,0.1-0.1,0.2-0.1,0.3
				c0.2-0.2,0.4-0.4,0.7-0.6c0.3-0.3,1.4-1,3-1c2.2,0.1,2.9,1.5,3.2,2.7c0.4-0.5,0.9-1.1,1.4-1.5C237.3,45.8,238.4,45,240,45z"/>
		</g>
		<g>
			<g>
				<g>
					<path class="st2" d="M73.2,21.4c0.5-2.5,0.5-4.1,0.5-5.1c-0.1-1.1,0.9-2.1,2.4-2.1c0.7,0.1,1.3,0.1,2.1,0.1
						c0.3,0,1.3,0,2.3-0.1c1-0.1,2.1-0.1,2.5-0.1c2.3,0,7.7,0.2,9.7,5.2c0.4,1.2,0.6,2.5,0.6,3.6c0,2.4-0.8,5.4-1.7,7.7
						c-3.6,8.3-10.8,8.6-13.6,8.6c-0.3,0-1.3,0-2.3-0.1c-0.9-0.1-2.1-0.1-2.5-0.1s-0.6,0-1.1,0.1h-0.2c-0.1,0-0.1,0.1-0.2,0.1
						c-1.2,0.1-2.3-0.9-2-1.9c0.3-1,0.8-2.9,1.4-5.7c0.3-1.6,0.6-3.4,1-5.1C72.6,24.8,72.8,23.1,73.2,21.4z M75.8,33.7
						c-0.1,0.8-0.3,1.4-0.3,1.9c0,1.4,0.7,1.4,2.6,1.4c2.1,0,5.3-0.5,7.5-4.5c0.8-1.4,2.3-5.3,2.3-9c0-5.3-2.7-6.9-7.2-6.9
						c-0.6,0-1,0.1-1.4,0.1c-0.1,0-0.1,0.1-0.2,0.1h0.1c-0.1,0.1-0.1,0.1-0.3,0.1c-0.3,1.2-0.5,2.1-0.7,3.4
						c-0.4,2.1-0.9,4.6-1.3,6.8C76.7,29,76.2,31.7,75.8,33.7z"/>
				</g>
			</g>
			<g>
				<g>
					<path class="st2" d="M111.1,21.3c1.9,1.9,1.9,3.9,1.9,4.9c0,5.6-3.6,13.5-11.7,13.5c-2.1,0-4.1-0.5-5.5-1.8
						c-0.8-0.8-2.2-2.4-2.2-5.5c0-5.7,3.8-13,11.8-13C107.9,19.4,109.9,20,111.1,21.3z M107,22.7c-0.4-0.4-1.2-0.9-2.2-0.9
						c-5.1,0-6.3,8.2-6.3,11c0,3.4,1.4,4.5,3.1,4.5c5.6,0,6.4-9.6,6.4-11.3C108,25.1,107.9,23.6,107,22.7z"/>
				</g>
			</g>
			<g>
				<g>
					<path class="st2" d="M128.8,19.7c1.1,0.3,1.4,1.3,1.2,2c-0.2,0.5-0.8,0.8-1.6,0.8c-0.5,0-0.8-0.1-1.2-0.2h0.1
						c-0.4-0.1-0.9-0.3-1.4-0.3c-4.3,0-6.9,4.7-6.9,9.6c0,1.7,0.3,3.8,1.9,4.9c0.9,0.6,1.8,0.8,2.7,0.8c0.8,0,1.4-0.1,2.1-0.4
						c1-0.3,1.8,0.4,1.5,1.2c-0.3,0.8-1.4,1.4-2.5,1.6c-0.5,0.1-1.2,0.1-1.9,0.1c-5.6,0-9.1-3.1-9.1-7.9c0-5.6,4-12.4,12.6-12.4
						C127.4,19.4,128.2,19.6,128.8,19.7z"/>
				</g>
			</g>
			<g>
				<g>
					<path class="st2" d="M138.7,19.4c0.2,0,0.3-0.1,0.5-0.1c0.5,0,0.9,0,1.2-0.1c1.1-0.1,1.9,0.6,1.8,1.3c-0.2,0.8-1.2,1.3-2.4,1.3
						c-0.7-0.1-1.2-0.1-1.7-0.1c-0.1,0.2-0.1,0.3-0.1,0.5c-0.2,0.8-0.4,1.9-0.6,3c-0.2,1-0.4,2.1-0.5,3c-0.1,0.8-0.3,1.6-0.4,2.1
						c-0.4,1.9-0.7,3.4-0.7,4.5c0,1.3,0.5,1.9,1.4,1.9c0.2,0,0.5-0.1,0.8-0.1c1-0.1,1.9,0.5,1.8,1.1c-0.2,0.9-1.2,1.6-2.4,1.9
						c-0.3,0.1-0.7,0.1-0.9,0.1c-2.4,0-3.9-0.7-4.5-1.4s-0.8-1.4-0.8-2.1c0-0.7,0.1-1.4,0.3-2.5l2.3-11.8c-0.7-0.1-1.3-0.6-1.2-1.2
						c0.1-0.7,0.8-1.3,1.7-1.3c0.2-0.9,0.3-1.6,0.3-2.3c0.1-1.2,1.2-2.1,2.7-2.5c1.2-0.3,2.5,0.4,2.3,1.4
						C139.3,17,139.1,17.9,138.7,19.4C138.8,19.4,138.7,19.4,138.7,19.4z"/>
				</g>
			</g>
			<g>
				<g>
					<path class="st2" d="M158.3,21.3c1.9,1.9,1.9,3.9,1.9,4.9c0,5.6-3.6,13.5-11.7,13.5c-2.1,0-4.1-0.5-5.5-1.8
						c-0.8-0.8-2.2-2.4-2.2-5.5c0-5.7,3.8-13,11.8-13C155.2,19.4,157.2,20,158.3,21.3z M154.3,22.7c-0.4-0.4-1.2-0.9-2.2-0.9
						c-5.1,0-6.3,8.2-6.3,11c0,3.4,1.4,4.5,3.1,4.5c5.6,0,6.4-9.6,6.4-11.3C155.2,25.1,155.2,23.6,154.3,22.7z"/>
				</g>
			</g>
			<g>
				<g>
					<path class="st2" d="M162.9,26c0.3-1.9,0.5-3.1,0.4-3.9c-0.1-0.9,0.5-1.8,1.8-1.9c0.3-0.1,0.7-0.1,0.9-0.1h-0.1
						c1.3-0.3,2.5,0.5,2.4,1.3c-0.1,0.1-0.1,0.5-0.1,0.7c-0.1,0.2-0.1,0.3-0.1,0.5c0.5-0.8,1.2-1.4,2.1-2.1c0.6-0.4,1.4-0.7,2.1-1
						c1.3-0.4,2.4,0.6,2.1,1.6c-0.3,0.9-1.6,1.6-3,1.9h0.1c-1.4,0.3-3.2,1.9-4.1,5.3c-0.5,1.9-1.4,6.5-1.5,8.8
						c-0.1,1.1-1.3,1.9-2.7,1.9h-0.2c-1.2,0-2.4-0.8-2.1-1.8c0.2-0.6,0.3-1.2,0.4-1.7L162.9,26z"/>
				</g>
			</g>
			<g>
				<g>
					<path class="st2" d="M183.3,29.6c0.7,0.6,1.1,1.4,1.1,2.5c0,3.1-2.5,4.9-5.6,4.9c-0.8,0-1.9-0.1-2.7-0.5l-0.1-0.1
						c-0.5-0.3-1.2-0.4-1.6-0.4c-0.9,0-1.6,0.3-1.8,0.9c-0.3,1,0.3,2.2,1.5,2.5c1,0.3,2.1,0.4,3.3,0.4c2.6,0,5.4-0.5,7.5-1.8
						c1.1-0.7,3.2-2.3,4.1-4.5L183.3,29.6z M175.8,36.4l0.1,0.1C175.9,36.5,175.9,36.5,175.8,36.4z"/>
				</g>
			</g>
			<path class="st0" d="M190.8,16.2c-0.7-0.8-2.5-2.3-4.5-2.5c-7.6-0.6-10.9,4.5-10.9,8.1c0,2.6,2.1,3.9,3.9,5.1l2.1,1.2
				c0.2,0.1,0.3,0.2,0.5,0.3l0,0l0,0c0.6,0.3,1.2,0.7,1.6,1.1l5.6,3.9c0.3-0.8,0.5-1.5,0.5-2.3c0-2.5-2.2-3.9-4.4-5.2l-2.1-1.2
				c-1.2-0.7-2.7-1.5-2.7-3.8c0-1.5,1.2-4.9,5.1-4.5c2.9,0.3,3.2,2.9,3.8,3.5c0.5,0.5,1,0.8,1.4,0.8c0.8,0,1.5-0.5,1.6-1.2l0,0
				C192.3,18.6,191.9,17.7,190.8,16.2z"/>
			<path class="st3" d="M197,34.7l-0.1,0.1C196.9,34.8,197,34.7,197,34.7z"/>
			<path class="st2" d="M190.9,39.3c1.5-0.1,3.6-0.1,5.8-0.1c1.1,0,2.9,0,4,0.1c0.8,0.1,1.7,0.1,2.7,0.1c1.6,0.1,2.9-0.8,3.2-2
				c0-0.1,0.1-0.2,0.1-0.3c0.3-0.9-0.8-1.6-1.9-1.4c-0.8,0.2-1.7,0.3-3.3,0.2h-8.3l-3.8,2.7C189.6,39,190.2,39.3,190.9,39.3z"/>
			<path class="st0" d="M206.9,24.9c1.7-2.3,2.1-4.5,2.1-5.1c0-5-4.3-6.8-8.3-6c-3.2,0.5-4.7,1.9-6,3.2c-1,1.1-1.8,1.9-1.6,2.9
				c0.1,1,1.2,1.4,2.4,1c1.4-0.5,2.7-2.9,4.3-3.6c2.1-0.8,4,0.7,4,3.1c0,4-5.3,8.6-8.2,10.8c-2.1,1.6-3.4,2.6-4.7,3.5
				c-1.2,0.8-1.9,1.9-2.1,2.9c0,0.3,0.1,0.7,0.4,1l3.8-2.7h-0.1c0.5-0.3,1-0.7,1.5-1l0.1-0.1c0.5-0.3,1-0.7,1.5-1.1
				C201.5,29.9,205.1,27,206.9,24.9z"/>
			<g>
				<g>
					<path class="st2" d="M208.7,33.4c-1.1,0-2.1-0.7-1.9-1.4c0.1-0.8,0.5-1.8,1.3-2.8c0.1-0.1,0.2-0.2,0.3-0.3
						c0.8-1.1,5.1-6.5,6-7.7c0.1-0.1,0.3-0.3,0.5-0.5c0.5-0.5,1.2-1.4,1.9-2.3c0.1-0.1,0.3-0.3,0.5-0.5c0.5-0.5,1.1-1.2,1.6-1.9
						c0.8-1,2.4-1.6,3.9-1.6h0.9c1.3-0.1,2.2,1,2.1,1.9c0,0.1-0.1,0.2-0.1,0.3c-0.1,0.1-0.1,0.3-0.1,0.3l0.1-0.1
						c-0.1,0.5-0.3,1.2-0.4,1.8c-0.3,1.1-0.5,2.3-0.8,3.4c-0.2,1.3-0.5,2.7-0.8,4.2c-0.3,1.4-0.5,2.8-0.8,4.1h0.7
						c1.2,0,2.1,0.8,2.1,1.6c-0.2,1-1.4,1.6-2.7,1.6h-0.5c-0.1,0.4-0.1,0.8-0.2,1.2c-0.1,0.4-0.2,0.8-0.3,1.2
						c-0.1,0.5-0.1,1-0.2,1.4c-0.2,1.1-1.5,1.9-2.9,1.9c-1.4,0-2.5-1-2.2-2.1c0.1-0.5,0.3-1,0.4-1.6c0.1-0.4,0.2-0.8,0.3-1.2
						c0.1-0.4,0.1-0.7,0.2-1h-8.8V33.4z M220.3,19L220.3,19c-2.8,3.2-6.6,8-8.9,11.2h6.7L220.3,19z"/>
				</g>
			</g>
			<g>
				<g>
					<path class="st2" d="M230.7,22.7c0.7-3.8,1-5.6,1-6.7c-0.1-0.8,0.3-1.7,1.6-1.9c0.3-0.1,0.8-0.1,1.1-0.1
						c1.3-0.2,2.6,0.5,2.4,1.5c-0.2,1-0.4,1.9-0.8,3.6c-0.2,1-0.4,2.1-0.5,3.1c-0.1,0.1-0.1,0.1,0,0.1c0.5-0.7,1.1-1.2,1.9-1.7
						c1.5-1,3.1-1.2,4.3-1.2c2.6,0,5.1,1.1,5.1,3.9c0,0.8-0.1,1.6-0.4,3.5l-1.4,7.9c-0.1,0.9-0.3,1.9-0.3,2.6
						c-0.1,1.1-1.3,1.9-2.7,1.9c-1.2,0-2.3-0.9-2.1-1.8c0.2-0.7,0.4-1.6,0.6-2.9c0.4-2.6,0.9-5.4,1.4-8c0.1-0.6,0.2-1.3,0.2-1.9
						c0-1.3-0.4-2.3-1.9-2.3c-1.2,0-2.5,0.7-3.6,1.8c-0.5,0.5-1.5,2.5-2.3,5.6c-0.2,0.9-1,5.2-1.4,7.4c-0.2,1.2-1.4,2.1-3,2.1
						c-1.2,0-2.2-0.9-1.9-1.8c0.2-0.7,0.5-2.3,1-4.8L230.7,22.7z"/>
				</g>
			</g>
		</g>
	</g>
</g>
</svg>
