<?xml version="1.0" encoding="utf-8"?>
<!-- Generator: Adobe Illustrator 16.0.0, SVG Export Plug-In . SVG Version: 6.00 Build 0)  -->
<!DOCTYPE svg PUBLIC "-//W3C//DTD SVG 1.1//EN" "http://www.w3.org/Graphics/SVG/1.1/DTD/svg11.dtd" [
	<!ENTITY ns_flows "http://ns.adobe.com/Flows/1.0/">
	<!ENTITY ns_extend "http://ns.adobe.com/Extensibility/1.0/">
	<!ENTITY ns_ai "http://ns.adobe.com/AdobeIllustrator/10.0/">
	<!ENTITY ns_graphs "http://ns.adobe.com/Graphs/1.0/">
]>
<svg version="1.1" id="Layer_1" xmlns:x="&ns_extend;" xmlns:i="&ns_ai;" xmlns:graph="&ns_graphs;"
	 xmlns="http://www.w3.org/2000/svg" xmlns:xlink="http://www.w3.org/1999/xlink" xmlns:a="http://ns.adobe.com/AdobeSVGViewerExtensions/3.0/"
	 x="0px" y="0px" width="2426.488px" height="297.008px" viewBox="36.756 1101.496 2426.488 297.008"
	 enable-background="new 36.756 1101.496 2426.488 297.008" xml:space="preserve">
<g>
	<path fill="#CC2229" d="M184.949,1103.496c81.749,0,148.18,66.418,148.18,148.18c0,81.748-66.432,148.828-148.18,148.828
		c-81.761,0-148.192-67.08-148.192-148.828C36.756,1169.914,103.188,1103.496,184.949,1103.496z M239.876,1136.712h-52.372
		c-7.665,3.839-12.14,8.937-14.695,15.33l-42.152,155.857c-5.11,19.156-1.271,31.283,12.14,37.664l32.58,1.297l1.907,35.771
		l60.037-122.63c1.284-4.487,0-6.394-3.826-7.042l-61.957-1.271c-10.22-3.19-10.22-16.614,0.648-19.169l38.961,0.648
		c2.555-0.648,3.826-1.92,5.11-3.839L239.876,1136.712L239.876,1136.712z M664.623,1116.907H501.748l-4.475,0.636
		c-48.546,6.394-82.396,33.215-100.917,67.701c-10.221,19.17-15.966,40.881-15.966,62.593c-0.543,21.985,4.514,43.747,14.694,63.24
		c17.886,34.474,51.736,62.593,101.554,70.906l5.109,0.636h162.239v-132.215H602.03v68.986h-98.362
		c-26.187-5.123-43.436-19.182-53.008-37.055c-5.109-10.207-7.665-22.347-7.665-33.838c0-12.14,3.19-23.631,8.301-33.852
		c9.585-17.249,26.821-30.66,51.736-34.486h161.591V1116.907L664.623,1116.907z M708.694,1180.783v197.996l246.542-1.271v-60.673
		H779.587v-37.69h148.828v-61.308H779.587v-37.055H946.3v-61.321H708.694V1180.783L708.694,1180.783z M1184.542,1378.767h67.054
		v-259.94h-68.974v140.502l-123.277-140.502h-63.876v259.94h68.985V1230.6L1184.542,1378.767L1184.542,1378.767z M1295.031,1180.783
		v197.996l245.92-1.271v-60.673h-175.65v-37.69h148.828v-61.308h-148.828v-37.055h167.336v-61.321h-237.605V1180.783z
		 M2226.26,1312.349v63.889h236.984v-63.889h-173.095v-197.361h-63.89V1312.349L2226.26,1312.349z M2038.483,1326.407
		c21.076,0,38.326-17.249,38.326-37.689c-0.064-21.139-17.188-38.256-38.326-38.313c-20.44,0-37.664,17.237-37.664,38.313
		C2000.819,1309.158,2018.043,1326.407,2038.483,1326.407z M1955.465,1374.317v-136.053c4.461-30.66,21.075-51.101,42.151-61.32
		c12.14-5.746,25.537-8.301,39.597-8.301c14.059,0.636,28.092,3.826,40.232,9.571c21.736,10.855,38.986,31.296,42.813,60.037v134.12
		h60.037v-139.217c-6.381-52.386-37.055-89.427-76.016-108.583c-21.076-10.221-43.423-15.966-66.418-15.966
		c-23.008-0.622-45.816,4.42-66.418,14.682c-38.326,18.521-68.974,54.927-76.016,109.218l-0.636,3.84v137.959h60.673V1374.317z
		 M1792.59,1280.43l73.461,97.065h-80.478l-72.189-93.875h-68.351v92.617h-65.121v-257.411h163.483l24.928,0.636
		c45.343-0.636,77.923,24.915,81.113,90.698C1843.678,1243.375,1825.17,1267.642,1792.59,1280.43L1792.59,1280.43z
		 M1645.033,1174.402v53.007h73.461l37.055,1.271c7.702,0.024,15.246-2.192,21.711-6.382c15.33-23.631,10.843-39.597-14.694-47.896
		H1645.033z"/>
</g>
</svg>
