<?xml version="1.0" encoding="UTF-8" standalone="no"?>
<svg
   xmlns:dc="http://purl.org/dc/elements/1.1/"
   xmlns:cc="http://creativecommons.org/ns#"
   xmlns:rdf="http://www.w3.org/1999/02/22-rdf-syntax-ns#"
   xmlns:svg="http://www.w3.org/2000/svg"
   xmlns="http://www.w3.org/2000/svg"
   version="1.1"
   id="svg4014"
   viewBox="0 0 300 88.975892"
   height="88.975891"
   width="300">
  <defs
     id="defs4016" />
  <metadata
     id="metadata4019">
    <rdf:RDF>
      <cc:Work
         rdf:about="">
        <dc:format>image/svg+xml</dc:format>
        <dc:type
           rdf:resource="http://purl.org/dc/dcmitype/StillImage" />
        <dc:title></dc:title>
      </cc:Work>
    </rdf:RDF>
  </metadata>
  <g
     transform="translate(-530.41733,-633.02659)"
     id="layer1">
    <g
       transform="matrix(2.1049242,0,0,-2.1049242,564.6625,720.40595)"
       id="g3706">
      <path
         id="path3708"
         style="fill:#ed1b23;fill-opacity:1;fill-rule:nonzero;stroke:none"
         d="m 0,0 -15.794,0 7.898,13.679 15.794,0 L 0,0 Z" />
    </g>
    <g
       transform="matrix(2.1049242,0,0,-2.1049242,597.90956,720.40595)"
       id="g3710">
      <path
         id="path3712"
         style="fill:#ed1b23;fill-opacity:1;fill-rule:nonzero;stroke:none"
         d="M 0,0 15.797,0 7.9,13.679 -7.897,13.679 0,0 Z" />
    </g>
    <g
       transform="matrix(2.1049242,0,0,-2.1049242,597.90956,662.81985)"
       id="g3714">
      <path
         id="path3716"
         style="fill:#ed1b23;fill-opacity:1;fill-rule:nonzero;stroke:none"
         d="M 0,0 -7.897,13.679 -15.795,0 -7.897,-13.678 0,0 Z" />
    </g>
    <g
       style="fill:#221e1f;fill-opacity:1"
       transform="matrix(2.1049242,0,0,-2.1049242,646.08728,708.14814)"
       id="g3718">
      <path
         id="path3720"
         style="fill:#221e1f;fill-opacity:1;fill-rule:nonzero;stroke:none"
         d="m 0,0 6.326,0 0,2.294 -6.326,0 0,2.822 7.117,0 0,2.295 -7.117,0 -2.681,0 0,-2.295 0,-8.645 0,-2.294 2.681,0 7.304,0 0,2.294 L 0,-3.529 0,0 Z" />
    </g>
    <g
       style="fill:#221e1f;fill-opacity:1"
       transform="matrix(2.1049242,0,0,-2.1049242,645.69849,667.2002)"
       id="g3722">
      <path
         id="path3724"
         style="fill:#221e1f;fill-opacity:1;fill-rule:nonzero;stroke:none"
         d="m 0,0 2.81,-9.836 0.112,0 2.353,0 0.11,0 2.811,9.836 0,-9.836 2.497,0 0,13.232 -1.362,0 -1.177,0 -1.285,0 -2.77,-9.288 -2.771,9.288 -1.285,0 -1.178,0 -1.362,0 0,-13.232 2.497,0 L 0,0 Z" />
    </g>
    <path
       id="path3726"
       style="fill:#221e1f;fill-opacity:1;fill-rule:nonzero;stroke:none"
       d="m 773.92311,660.0521 -5.61172,0 0,27.85236 5.61172,0 0,-27.85236 z" />
    <path
       id="path3728"
       style="fill:#221e1f;fill-opacity:1;fill-rule:nonzero;stroke:none"
       d="m 778.49711,692.54792 -5.60962,0 0,27.85867 5.60962,0 0,-27.85867 z" />
    <path
       id="path3730"
       style="fill:#221e1f;fill-opacity:1;fill-rule:nonzero;stroke:none"
       d="m 829.41732,660.0521 -5.60958,0 0,27.85236 5.60958,0 0,-27.85236 z" />
    <path
       id="path3732"
       style="fill:#221e1f;fill-opacity:1;fill-rule:nonzero;stroke:none"
       d="m 676.05467,660.0521 -5.61174,0 0,27.85236 5.61174,0 0,-27.85236 z" />
    <g
       style="fill:#221e1f;fill-opacity:1"
       transform="matrix(2.1049242,0,0,-2.1049242,815.96645,670.91707)"
       id="g3734">
      <path
         id="path3736"
         style="fill:#221e1f;fill-opacity:1;fill-rule:nonzero;stroke:none"
         d="m 0,0 -5.298,0 0,5.161 -2.623,0 0,-13.231 2.623,0 0,5.776 5.298,0 0,-5.776 2.623,0 0,13.231 L 0,5.161 0,0 Z" />
    </g>
    <g
       style="fill:#221e1f;fill-opacity:1"
       transform="matrix(2.1049242,0,0,-2.1049242,684.35227,687.90466)"
       id="g3738">
      <path
         id="path3740"
         style="fill:#221e1f;fill-opacity:1;fill-rule:nonzero;stroke:none"
         d="m 0,0 2.723,0 0,10.94 3.233,0 0,2.292 -3.233,0 -2.723,0 -3.233,0 0,-2.292 L 0,10.94 0,0 Z" />
    </g>
    <g
       style="fill:#221e1f;fill-opacity:1"
       transform="matrix(2.1049242,0,0,-2.1049242,735.53287,720.40595)"
       id="g3742">
      <path
         id="path3744"
         style="fill:#221e1f;fill-opacity:1;fill-rule:nonzero;stroke:none"
         d="m 0,0 2.719,0 0,10.939 3.234,0 0,2.296 -3.234,0 -2.719,0 -3.235,0 0,-2.296 3.235,0 L 0,0 Z" />
    </g>
    <g
       style="fill:#221e1f;fill-opacity:1"
       transform="matrix(2.1049242,0,0,-2.1049242,731.6998,688.67991)"
       id="g3746">
      <path
         id="path3748"
         style="fill:#221e1f;fill-opacity:1;fill-rule:nonzero;stroke:none"
         d="m 0,0 c 3.395,0 5.279,1.545 5.279,4.499 l 0,9.101 -2.665,0 0,-9.342 C 2.614,3.121 1.656,2.17 0,2.17 c -2.004,0 -2.594,1.122 -2.594,2.088 l 0,9.342 -2.621,0 0,-9.101 C -5.215,1.319 -3.241,0 0,0" />
    </g>
    <g
       style="fill:#221e1f;fill-opacity:1"
       transform="matrix(2.1049242,0,0,-2.1049242,689.294,708.14814)"
       id="g3750">
      <path
         id="path3752"
         style="fill:#221e1f;fill-opacity:1;fill-rule:nonzero;stroke:none"
         d="m 0,0 6.329,0 0,2.294 -6.329,0 0,2.822 7.119,0 0,2.295 -7.119,0 -2.68,0 0,-2.295 0,-8.645 0,-2.294 2.68,0 7.305,0 0,2.294 L 0,-3.529 0,0 Z" />
    </g>
    <g
       style="fill:#221e1f;fill-opacity:1"
       transform="matrix(2.1049242,0,0,-2.1049242,757.36388,664.47601)"
       id="g3754">
      <path
         id="path3756"
         style="fill:#221e1f;fill-opacity:1;fill-rule:nonzero;stroke:none"
         d="m 0,0 c 0.728,0 1.542,-0.677 1.542,-1.567 0,-0.793 -0.569,-1.666 -1.691,-1.666 l -3.174,0 0,3.233 L 0,0 Z m -0.197,-9.13 -3.126,0 0,3.837 3.095,0 c 1.114,0 2.056,-0.64 2.056,-1.923 0,-1.086 -0.855,-1.914 -2.025,-1.914 m -3.023,-2 3.82,0 c 2.489,0 3.974,1.489 3.974,3.572 0,1.684 -1.222,3.129 -2.552,3.461 1.163,0.296 2.097,1.483 2.097,2.944 0,1.951 -1.442,3.254 -4.124,3.254 l -3.215,0 -2.739,0 -0.013,0 0,-13.231 0.013,0 2.739,0 z" />
    </g>
    <g
       style="fill:#221e1f;fill-opacity:1"
       transform="matrix(2.1049242,0,0,-2.1049242,755.0834,704.9196)"
       id="g3758">
      <path
         id="path3760"
         style="fill:#221e1f;fill-opacity:1;fill-rule:nonzero;stroke:none"
         d="m 0,0 0,3.601 3.227,0 C 4.316,3.601 5.042,2.837 5.042,1.792 5.042,1.057 4.397,0 3.306,0 L 0,0 Z m 5.312,-1.004 c 1.135,0.342 2.354,1.36 2.354,3.197 0,2.353 -1.594,3.703 -4.306,3.703 l -3.36,0 -2.655,0 -0.027,0 0,-13.234 2.682,0 0,5.215 2.275,0 c 1.377,0 2.125,-0.714 2.351,-1.657 0.247,-1.04 0.184,-2.59 0.45,-3.558 l 2.694,0 c -0.262,1.013 -0.416,2.391 -0.474,3.479 -0.097,1.791 -1.039,2.505 -1.984,2.855" />
    </g>
    <g
       style="fill:#221e1f;fill-opacity:1"
       transform="matrix(2.1049242,0,0,-2.1049242,668.91328,692.54812)"
       id="g3762">
      <path
         id="path3764"
         style="fill:#221e1f;fill-opacity:1;fill-rule:nonzero;stroke:none"
         d="m 0,0 -2.68,0 0,-10.94 0,-2.295 2.68,0 6.238,0 0,2.295 L 0,-10.94 0,0 Z" />
    </g>
    <g
       style="fill:#221e1f;fill-opacity:1"
       transform="matrix(2.1049242,0,0,-2.1049242,706.30705,676.1335)"
       id="g3766">
      <path
         id="path3768"
         style="fill:#221e1f;fill-opacity:1;fill-rule:nonzero;stroke:none"
         d="m 0,0 c 2.148,-0.375 3.369,-0.771 3.369,-2.053 0,-0.868 -0.86,-1.691 -2.641,-1.691 -1.782,0 -2.695,1.013 -2.695,2.215 l -2.569,0 c 0,-2.301 1.491,-4.405 5.38,-4.405 3.702,0 5.307,1.959 5.307,4.196 0,2.085 -1.367,3.408 -3.812,3.888 -2.348,0.461 -3.96,0.561 -3.96,2.049 0,1.022 0.935,1.626 2.371,1.626 1.529,0 2.406,-0.751 2.406,-2.02 l 2.589,0 c 0,2.088 -1.582,4.237 -5.101,4.237 -2.427,0 -4.945,-1.398 -4.945,-4.013 C -4.301,1.831 -2.687,0.47 0,0" />
    </g>
    <g
       style="fill:#221e1f;fill-opacity:1"
       transform="matrix(2.1049242,0,0,-2.1049242,784.83884,676.1335)"
       id="g3770">
      <path
         id="path3772"
         style="fill:#221e1f;fill-opacity:1;fill-rule:nonzero;stroke:none"
         d="m 0,0 c 2.146,-0.375 3.366,-0.771 3.366,-2.053 0,-0.868 -0.857,-1.691 -2.639,-1.691 -1.781,0 -2.697,1.013 -2.697,2.215 l -2.567,0 c 0,-2.301 1.49,-4.405 5.378,-4.405 3.702,0 5.308,1.959 5.308,4.196 0,2.085 -1.366,3.408 -3.81,3.888 -2.35,0.461 -3.96,0.561 -3.96,2.049 0,1.022 0.933,1.626 2.371,1.626 1.525,0 2.404,-0.751 2.404,-2.02 l 2.59,0 c 0,2.088 -1.583,4.237 -5.101,4.237 -2.429,0 -4.947,-1.398 -4.947,-4.013 C -4.304,1.831 -2.687,0.47 0,0" />
    </g>
    <g
       style="fill:#221e1f;fill-opacity:1"
       transform="matrix(2.1049242,0,0,-2.1049242,717.36759,716.10222)"
       id="g3774">
      <path
         id="path3776"
         style="fill:#221e1f;fill-opacity:1;fill-rule:nonzero;stroke:none"
         d="m 0,0 c -2.156,0 -3.414,2.112 -3.414,4.627 0,2.516 1.214,4.631 3.414,4.631 1.636,0 2.476,-1.019 2.84,-2.263 l 2.776,0 c -0.455,2.59 -2.481,4.515 -5.692,4.515 -4.048,0 -6.095,-3.098 -6.095,-6.92 0,-3.822 2.131,-6.918 6.095,-6.918 3.173,0 5.315,1.844 5.708,4.671 l -2.792,0 C 2.476,1.013 1.607,0 0,0" />
    </g>
    <g
       style="fill:#221e1f;fill-opacity:1"
       transform="matrix(2.1049242,0,0,-2.1049242,792.85186,716.10222)"
       id="g3778">
      <path
         id="path3780"
         style="fill:#221e1f;fill-opacity:1;fill-rule:nonzero;stroke:none"
         d="m 0,0 c -2.155,0 -3.413,2.112 -3.413,4.627 0,2.516 1.212,4.631 3.413,4.631 1.638,0 2.478,-1.019 2.84,-2.263 l 2.776,0 c -0.456,2.59 -2.481,4.515 -5.693,4.515 -4.049,0 -6.095,-3.098 -6.095,-6.92 0,-3.822 2.131,-6.918 6.095,-6.918 3.174,0 5.315,1.844 5.709,4.671 l -2.792,0 C 2.478,1.013 1.605,0 0,0" />
    </g>
  </g>
</svg>
