<?xml version="1.0" encoding="utf-8"?>
<!-- Generator: Adobe Illustrator 16.0.0, SVG Export Plug-In . SVG Version: 6.00 Build 0)  -->
<!DOCTYPE svg PUBLIC "-//W3C//DTD SVG 1.1//EN" "http://www.w3.org/Graphics/SVG/1.1/DTD/svg11.dtd">
<svg version="1.1" id="Capa_1" xmlns="http://www.w3.org/2000/svg" xmlns:xlink="http://www.w3.org/1999/xlink" x="0px" y="0px"
	 width="82.75px" height="148.5px" viewBox="0 21.5 82.75 148.5" enable-background="new 0 21.5 82.75 148.5" xml:space="preserve">
<g>
	<g>
		<path fill="#66C9F9" d="M76.203,74.958L46.776,49.19c-1.56-1.35-3.54-2.1-5.61-2.1s-4.049,0.75-5.609,2.1l-10.439,9.149
			c-0.601-2.22-0.93-4.56-0.93-6.989c0-5.88,1.86-11.399,5.22-15.509c3.18-3.899,7.379-6.06,11.759-6.06
			c9.36,0,16.978,9.659,16.978,21.568c0,1.98,1.62,3.6,3.6,3.6l0,0c1.98,0,3.601-1.62,3.601-3.6
			c0-15.869-10.858-28.768-24.178-28.768c-6.599,0-12.749,3.09-17.338,8.699c-4.41,5.399-6.839,12.509-6.839,20.068
			c0,4.26,0.78,8.369,2.25,12.149L6.16,74.958C2.89,77.838,1,81.978,1,86.327v64.614C1,160.9,9.099,169,19.058,169h44.247
			c9.96,0,18.059-8.1,18.059-18.059V86.327C81.363,81.978,79.473,77.838,76.203,74.958z M74.164,150.941
			c0,5.999-4.859,10.858-10.859,10.858H19.028c-6,0-10.859-4.859-10.859-10.858V86.327c0-2.28,0.99-4.47,2.7-5.97l11.849-10.379
			c0.36,0.48,0.72,0.96,1.08,1.44c4.59,5.609,10.739,8.699,17.339,8.699l0,0c1.979,0,3.599-1.62,3.599-3.6
			c0-1.98-1.62-3.6-3.599-3.6c-4.41,0-8.579-2.16-11.759-6.059c-0.42-0.54-0.84-1.08-1.23-1.65L40.267,54.59
			c0.3-0.27,0.63-0.33,0.87-0.33c0.24,0,0.57,0.06,0.87,0.33l29.427,25.768c1.71,1.5,2.7,3.689,2.7,5.97v64.614H74.164z"/>
		<path fill="#66C9F9" d="M45.126,113.625h-7.919c-2.79,0-5.07-2.28-5.07-5.069c0-2.791,2.28-5.07,5.07-5.07h13.948
			c1.979,0,3.6-1.62,3.6-3.6s-1.62-3.6-3.6-3.6h-6.389v-4.68c0-1.979-1.62-3.6-3.6-3.6c-1.979,0-3.6,1.62-3.6,3.6v4.68h-0.36
			c-6.78,0-12.269,5.52-12.269,12.27c0,6.779,5.52,12.269,12.269,12.269h7.919c2.79,0,5.07,2.28,5.07,5.069s-2.28,5.069-5.07,5.069
			H30.908c-1.98,0-3.6,1.62-3.6,3.601c0,1.979,1.62,3.599,3.6,3.599h6.659v4.771c0,1.979,1.62,3.6,3.6,3.6c1.98,0,3.6-1.62,3.6-3.6
			v-4.771h0.42c0.03,0,0.06,0,0.09,0c6.69-0.089,12.12-5.55,12.12-12.269C57.396,119.115,51.875,113.625,45.126,113.625z"/>
	</g>
</g>
</svg>
