<?xml version="1.0" encoding="utf-8"?>
<!-- Generator: Adobe Illustrator 16.0.0, SVG Export Plug-In . SVG Version: 6.00 Build 0)  -->
<!DOCTYPE svg PUBLIC "-//W3C//DTD SVG 1.1//EN" "http://www.w3.org/Graphics/SVG/1.1/DTD/svg11.dtd">
<svg version="1.1" id="Layer_1" xmlns="http://www.w3.org/2000/svg" xmlns:xlink="http://www.w3.org/1999/xlink" x="0px" y="0px"
	 width="80.667px" height="66.957px" viewBox="0 0 80.667 66.957" enable-background="new 0 0 80.667 66.957" xml:space="preserve">
<g>
	<path fill-rule="evenodd" clip-rule="evenodd" fill="#66C9F9" d="M66.672,46.406c0.496-0.851,0.983-1.706,1.493-2.547
		c0.106-0.176,0.295-0.302,0.445-0.45c0.059,0.048,0.116,0.095,0.175,0.143c-0.646,1.259-1.291,2.518-1.938,3.776
		c0.035,0.049,0.069,0.096,0.104,0.145c2.086-2.005,4.409-3.551,7.38-3.959c-0.422,1.309-1.038,2.508-1.923,3.521
		c-0.631,0.725-1.351,1.443-2.176,1.908c-1.42,0.801-2.917,0.578-4.31-0.167c-1.204,1.425-2.391,2.827-3.577,4.229
		c0.015,0.029,0.03,0.058,0.045,0.086c0.634-0.316,1.254-0.661,1.902-0.942c1.144-0.496,2.296-0.979,3.465-1.41
		c0.339-0.126,0.748-0.074,1.126-0.08c1.005-0.017,1.901-0.324,2.688-0.97c-1.304,2.214-2.939,4.104-5.241,5.303
		c-1.948,1.015-3.807,0.733-5.467-0.583c-1.852,1.308-3.681,2.597-5.667,3.999c0.849-0.209,1.527-0.391,2.214-0.541
		c1.547-0.34,3.059-0.892,4.688-0.748c0.826,0.073,1.658,0.135,2.485,0.116c0.418-0.009,0.832-0.208,1.247-0.321
		c0.032,0.041,0.063,0.081,0.096,0.122c-0.936,0.714-1.84,1.473-2.813,2.129c-1.576,1.063-3.267,1.916-5.176,2.188
		c-1.792,0.255-3.356-0.211-4.534-1.663c-0.185-0.228-0.312-0.347-0.634-0.195c-3.128,1.467-6.432,2.394-9.791,3.149
		c-0.068,0.015-0.128,0.067-0.285,0.152c2.281,0.841,4.588,1.44,6.414,3.181c-0.354,0.199-0.628,0.389-0.93,0.509
		c-0.126,0.051-0.349,0.01-0.462-0.076c-2.097-1.602-4.536-2.441-7.033-3.133c-0.329-0.091-0.743,0.048-1.099,0.148
		c-2.346,0.664-4.603,1.522-6.567,3.021c-0.102,0.078-0.329,0.063-0.466,0.009c-0.273-0.107-0.524-0.272-0.873-0.462
		c1.794-1.766,4.127-2.344,6.324-3.282c-0.913-0.229-1.827-0.454-2.738-0.688c-2.467-0.633-4.878-1.426-7.198-2.489
		c-0.161-0.073-0.502-0.043-0.596,0.071c-1.487,1.842-3.428,2.154-5.553,1.562c-2.618-0.73-4.853-2.168-6.823-4.025
		c-0.064-0.06-0.113-0.135-0.153-0.246c1.188,0.556,2.392,0.463,3.626,0.249c1.371-0.238,2.679,0.229,3.995,0.519
		c0.814,0.179,1.616,0.409,2.426,0.609c0.146,0.036,0.299,0.036,0.496,0.059c-1.864-1.313-3.679-2.591-5.559-3.915
		c-0.019,0.013-0.133,0.081-0.241,0.159c-1.677,1.225-3.448,1.329-5.28,0.4c-1.932-0.979-4.179-3.289-5.232-5.373
		c0.981,0.887,2.086,1.036,3.266,1.084c0.694,0.029,1.41,0.249,2.057,0.523c1.262,0.535,2.481,1.17,3.718,1.763
		c0.066,0.031,0.138,0.05,0.365,0.132c-0.711-0.799-1.326-1.465-1.911-2.156c-0.591-0.697-1.151-1.422-1.727-2.138
		c-0.533,0.174-1.062,0.41-1.616,0.517c-1.901,0.367-3.387-0.405-4.591-1.812c-1.004-1.172-1.77-2.491-2.274-3.967
		c2.965,0.337,5.274,1.926,7.375,3.923c0.035-0.047,0.069-0.096,0.104-0.144c-0.646-1.259-1.291-2.517-1.937-3.776
		c0.057-0.047,0.114-0.094,0.171-0.142c0.151,0.147,0.348,0.27,0.447,0.447c0.367,0.659,0.691,1.342,1.053,2.004
		c0.11,0.201,0.291,0.364,0.439,0.545h-0.001c0.143,0.317,0.286,0.635,0.484,1.076c0.871-1.311,1.193-2.634,1.513-3.981
		c0.481,0,0.954,0,1.499,0c0.221,2.193-1.109,3.289-2.948,4.158c1.169,1.443,2.297,2.834,3.425,4.226
		c0.063-0.041,0.125-0.083,0.188-0.125c-0.101-0.294-0.231-0.581-0.296-0.884c-0.194-0.908-0.406-1.817-0.528-2.737
		c-0.092-0.695,0.361-1.223,0.72-1.779c0.375-0.581,0.659-1.22,0.975-1.815c0.901,1.525,2.158,3.068,2.392,5.066
		c0.157,1.339-0.581,2.351-1.575,3.179c-0.107,0.089-0.225,0.164-0.333,0.251c-0.028,0.023-0.038,0.067-0.088,0.159
		c1.598,1.46,3.315,2.771,5.298,3.76c-0.243-0.323-0.513-0.631-0.721-0.976c-0.409-0.68-0.807-1.368-1.165-2.074
		c-0.405-0.798-0.363-1.617,0.031-2.413c0.351-0.709,0.428-1.437,0.152-2.306c1.562,1.562,3.291,2.817,4.316,4.709
		c0.623,1.147,0.48,2.305-0.137,3.419c-0.161,0.29-0.368,0.555-0.639,0.958c1.469,0.568,2.855,1.238,4.315,1.643
		c3.058,0.848,6.147,1.59,9.244,2.286c0.55,0.124,1.208-0.139,1.798-0.294c3.05-0.8,6.105-1.588,9.137-2.457
		c1-0.286,1.933-0.801,2.783-1.163c-0.349-0.84-0.759-1.559-0.942-2.331c-0.253-1.075,0.148-2.075,0.855-2.877
		c1.168-1.325,2.412-2.584,3.687-3.829c-0.161,0.818-0.09,1.556,0.272,2.271c0.687,1.354,0.04,2.515-0.597,3.645
		c-0.358,0.634-0.834,1.201-1.218,1.846c1.926-1.027,3.624-2.363,5.283-3.835c-0.352-0.315-0.68-0.569-0.963-0.866
		c-0.958-1.013-1.345-2.173-0.907-3.557c0.505-1.592,1.454-2.934,2.23-4.215c0.314,0.596,0.544,1.284,0.976,1.805
		c1.121,1.351,0.689,2.763,0.313,4.189c-0.109,0.414-0.278,0.813-0.419,1.22c0.063,0.042,0.125,0.084,0.188,0.125
		c1.129-1.39,2.257-2.779,3.427-4.222c-1.827-0.862-3.151-1.951-2.961-4.144c0.508,0,0.978,0,1.418,0
		c0.448,1.273,0.897,2.553,1.348,3.832c0.094,0.007,0.188,0.014,0.283,0.021c0.151-0.32,0.304-0.642,0.456-0.962H66.672z
		 M27.189,59.282c0.001-0.051,0.002-0.103,0.004-0.153c-0.227-0.118-0.444-0.261-0.682-0.347c-0.225-0.082-0.482-0.177-0.707-0.142
		c-0.973,0.148-1.933,0.391-2.91,0.505c-0.712,0.082-1.441,0.016-2.163,0.016C22.884,59.78,25.036,59.844,27.189,59.282z
		 M53.545,59.177c1.292,0.671,5.639,0.635,6.546-0.066c-0.148,0.012-0.243,0.024-0.338,0.025c-1.431,0.021-2.908,0.234-4.255-0.329
		C54.667,58.459,54.173,58.813,53.545,59.177z M24.902,52.862c-0.056,0.157-0.071,0.179-0.067,0.195
		c0.254,1.34,0.657,2.665,0.363,4.056c-0.02,0.092,0.043,0.255,0.12,0.303c0.336,0.211,0.691,0.393,1.134,0.636
		C26.245,56.16,25.771,54.509,24.902,52.862z M54.356,58.01c0.327-0.169,0.562-0.309,0.811-0.416
		c0.369-0.158,0.452-0.368,0.373-0.79c-0.094-0.497-0.053-1.033,0.007-1.544c0.089-0.763,0.246-1.519,0.373-2.276
		C55.038,54.522,54.528,56.166,54.356,58.01z M19.678,54.225c-0.469-0.775-0.716-0.889-1.471-0.813
		c-0.412,0.041-0.835,0.069-1.243,0.018c-0.997-0.126-1.989-0.302-2.982-0.457C15.746,53.938,17.63,54.339,19.678,54.225z
		 M61.056,54.163c1.687,0.282,4.822-0.402,5.771-1.257c-0.168,0.036-0.28,0.068-0.395,0.082c-1.253,0.147-2.513,0.438-3.758,0.384
		C61.896,53.338,61.527,53.636,61.056,54.163z M19.323,53.02c0.397-1.729,0.483-3.316,0.223-4.938
		c-0.323,1.37-0.639,2.705-0.977,4.134C18.705,52.359,18.96,52.632,19.323,53.02z M61.226,48.049c-0.209,1.668-0.2,3.26,0.237,4.871
		c0.354-0.317,0.646-0.579,0.936-0.84c-0.073-0.002-0.146-0.003-0.22-0.005C61.866,50.758,61.555,49.44,61.226,48.049z
		 M14.664,48.603c0.048-0.055,0.097-0.109,0.145-0.164c-0.292-0.268-0.543-0.666-0.885-0.774c-0.725-0.229-1.511-0.26-2.247-0.463
		c-0.643-0.177-1.252-0.476-1.877-0.721C11.197,47.728,12.845,48.37,14.664,48.603z M70.992,46.469
		c-0.122,0.047-0.242,0.099-0.366,0.138c-1.109,0.349-2.201,0.85-3.337,0.989c-0.747,0.093-0.991,0.418-1.271,1.021
		C67.925,48.374,69.588,47.735,70.992,46.469z"/>
	<path fill-rule="evenodd" clip-rule="evenodd" fill="#66C9F9" d="M34.367,40.269c-1.092,0-2.178,0-3.308,0c0-1.886,0-3.734,0-5.624
		c-0.369,0-0.693,0-1.082,0c0,1.87,0,3.733,0,5.629c-1.13,0-2.199,0-3.311,0c0-4.488,0-8.964,0-13.491c1.066,0,2.147,0,3.291,0
		c0,1.584,0,3.169,0,4.794c0.385,0,0.709,0,1.095,0c0-1.601,0-3.187,0-4.808c1.127,0,2.195,0,3.314,0
		C34.367,31.258,34.367,35.748,34.367,40.269z"/>
	<path fill-rule="evenodd" clip-rule="evenodd" fill="#66C9F9" d="M72.38,40.227c0-4.476,0-8.938,0-13.458
		c1.298,0,2.584-0.034,3.868,0.013c0.707,0.026,1.416,0.155,2.113,0.296c1.031,0.206,1.767,1.054,1.775,2.107
		c0.026,2.947,0.031,5.896,0.006,8.844c-0.011,1.292-0.691,2.107-1.98,2.173C76.259,40.298,74.347,40.227,72.38,40.227z
		 M76.804,29.947c-0.006-0.791-0.234-0.946-1.059-0.85c0,2.938,0,5.881,0,8.86c0.801,0.022,1.038-0.147,1.045-0.836"/>
	<path fill-rule="evenodd" clip-rule="evenodd" fill="#66C9F9" d="M9.859,26.761c1.032,0,2.1,0,3.24,0c0,0.241,0,0.454,0,0.666
		c0,3.213-0.002,6.425,0.004,9.638c0,0.296,0.013,0.607,0.106,0.882c0.053,0.157,0.283,0.354,0.429,0.351
		c0.163-0.004,0.397-0.185,0.461-0.344c0.091-0.229,0.073-0.508,0.073-0.765c0.002-3.252,0-6.505-0.002-9.757
		c0-0.214,0-0.428,0-0.67c1.136,0,2.204,0,3.313,0c0.013,0.17,0.035,0.323,0.035,0.476c0.001,3.292,0.006,6.585-0.002,9.877
		c-0.004,1.668-0.832,2.855-2.347,3.266c-1.573,0.425-3.078,0.274-4.39-0.803c-0.548-0.449-0.903-1.051-0.908-1.746
		C9.845,34.164,9.859,30.498,9.859,26.761z"/>
	<path fill-rule="evenodd" clip-rule="evenodd" fill="#66C9F9" d="M48.38,34.156c0,2.043,0,4.049,0,6.103c-1.123,0-2.186,0-3.296,0
		c0-4.486,0-8.976,0-13.484c1.319,0,2.61-0.015,3.9,0.008c0.535,0.009,1.073,0.068,1.6,0.159c0.885,0.151,1.46,0.71,1.733,1.541
		c0.374,1.141,0.375,2.308,0.135,3.48c-0.168,0.821-0.81,1.065-1.56,1.247c0.101,0.082,0.152,0.154,0.217,0.172
		c0.984,0.272,1.447,0.972,1.469,1.936c0.037,1.632,0.01,3.267,0.01,4.944c-1.021,0-2.025,0-3.096,0c0-1.36,0.002-2.71-0.001-4.059
		c-0.001-0.399-0.012-0.798-0.031-1.196C49.431,34.392,49.087,34.126,48.38,34.156z M48.415,32.066
		c0.808,0.006,0.986-0.124,1.049-0.838c0.04-0.452,0.042-0.913,0.004-1.365c-0.055-0.654-0.315-0.836-1.053-0.795
		C48.415,30.051,48.415,31.034,48.415,32.066z"/>
	<path fill-rule="evenodd" clip-rule="evenodd" fill="#66C9F9" d="M43.623,33.48c0,1.096-0.002,2.192,0,3.288
		c0.006,2.911-2.081,4.051-4.44,3.773c-2.325-0.272-3.324-1.473-3.342-3.837c-0.016-2.192-0.011-4.385,0.001-6.576
		c0.013-2.142,1.23-3.481,3.371-3.641c1.438-0.106,2.79,0.132,3.733,1.397c0.497,0.666,0.662,1.438,0.671,2.246
		C43.633,31.248,43.622,32.364,43.623,33.48z M40.274,33.479c0-1.255,0.002-2.51-0.002-3.765c0-0.197,0.021-0.422-0.064-0.584
		c-0.087-0.167-0.301-0.388-0.442-0.376c-0.182,0.015-0.391,0.208-0.507,0.379c-0.088,0.13-0.064,0.345-0.066,0.522
		c-0.015,1.713-0.033,3.426-0.036,5.138c-0.001,0.976,0,1.952,0.06,2.925c0.013,0.21,0.285,0.403,0.438,0.604
		c0.197-0.181,0.439-0.334,0.575-0.554c0.092-0.146,0.042-0.387,0.043-0.586C40.275,35.947,40.274,34.713,40.274,33.479z"/>
	<path fill-rule="evenodd" clip-rule="evenodd" fill="#66C9F9" d="M9.146,40.304c-1.088,0-2.12,0.015-3.15-0.02
		c-0.112-0.004-0.289-0.276-0.309-0.44c-0.075-0.631-0.098-1.27-0.143-1.951c-0.431,0-0.835,0-1.303,0
		c-0.051,0.651-0.078,1.304-0.168,1.947c-0.024,0.169-0.237,0.439-0.371,0.445c-1.012,0.037-2.026,0.021-3.134,0.021
		c0.584-4.546,1.16-9.031,1.74-13.543c1.634,0,3.223,0,4.883,0C7.839,31.249,8.487,35.74,9.146,40.304z M5.383,35.426
		c-0.156-1.753-0.308-3.469-0.46-5.185c-0.037-0.003-0.074-0.005-0.11-0.008c-0.201,1.723-0.401,3.445-0.604,5.192
		C4.657,35.426,5.006,35.426,5.383,35.426z"/>
	<path fill-rule="evenodd" clip-rule="evenodd" fill="#66C9F9" d="M44.382,13.824c-0.095,1.474-0.187,2.898-0.289,4.496
		c1.106-1.229,2.109-2.344,3.111-3.459c0.021,0.071,0.042,0.143,0.064,0.214c0-0.398-0.135-0.879,0.041-1.173
		c0.15-0.25,0.66-0.395,1.006-0.389c0.421,0.008,0.707,0.33,0.701,0.814c-0.005,0.483-0.317,0.671-0.714,0.838
		c-0.224,0.095-0.467,0.287-0.569,0.5c-0.679,1.412-1.329,2.839-1.972,4.268c-0.14,0.312-0.31,0.438-0.67,0.436
		c-3.131-0.016-6.264-0.016-9.395,0c-0.358,0.002-0.532-0.121-0.672-0.434c-0.652-1.447-1.315-2.889-2-4.321
		c-0.086-0.182-0.292-0.356-0.482-0.429c-0.42-0.159-0.766-0.34-0.774-0.855c-0.008-0.451,0.236-0.779,0.644-0.797
		c0.351-0.015,0.787,0.1,1.047,0.32c0.348,0.294,0.244,0.72-0.067,1.06c-0.025,0.027-0.033,0.07,0.01-0.027
		c1.071,1.135,2.105,2.229,3.269,3.462c-0.059-1.073-0.105-1.97-0.158-2.865c-0.018-0.299-0.071-0.597-0.065-0.894
		c0.01-0.434,0.018-0.782-0.557-0.915c-0.42-0.096-0.563-0.711-0.363-1.115c0.211-0.424,0.851-0.592,1.304-0.341
		c0.456,0.252,0.669,0.783,0.341,1.151c-0.335,0.378-0.166,0.635,0.002,0.941c0.599,1.095,1.203,2.188,1.901,3.457
		c0.38-1.602,0.718-3.029,1.061-4.477c-0.477-0.24-0.899-0.579-0.64-1.111c0.144-0.296,0.564-0.572,0.899-0.63
		c0.424-0.073,0.813,0.208,0.922,0.681c0.119,0.516-0.178,0.822-0.673,1.041c0.337,1.439,0.673,2.874,1.054,4.499
		c0.402-0.727,0.713-1.287,1.022-1.849c0.288-0.522,0.569-1.049,0.859-1.569c0.184-0.328,0.365-0.59,0.016-0.989
		c-0.334-0.381-0.082-0.945,0.412-1.176c0.471-0.221,1.086-0.006,1.269,0.441c0.196,0.479-0.04,0.963-0.559,1.136
		C44.627,13.795,44.525,13.8,44.382,13.824z"/>
	<path fill-rule="evenodd" clip-rule="evenodd" fill="#66C9F9" d="M65.451,26.763c1.857,0,3.684,0,5.553,0c0,0.857,0,1.704,0,2.626
		c-0.708,0-1.435,0-2.196,0c0,0.918,0,1.762,0,2.666c0.695,0,1.364,0,2.074,0c0,0.864,0,1.668,0,2.531c-0.695,0-1.38,0-2.087,0
		c0,1.027,0,1.997,0,3.024c0.816,0,1.604,0,2.441,0c0,0.919,0,1.782,0,2.659c-1.928,0-3.852,0-5.785,0
		C65.451,35.751,65.451,31.272,65.451,26.763z"/>
	<path fill-rule="evenodd" clip-rule="evenodd" fill="#66C9F9" d="M60.804,29.41c-0.744,0-1.486,0-2.264,0c0-0.919,0-1.761,0-2.642
		c1.974,0,3.914,0,5.896,0c0.033,1.369,0.081,2.69-0.374,4.011c-0.77,2.227-1.431,4.489-2.164,6.823c0.868,0,1.67,0,2.515,0
		c0,0.917,0,1.763,0,2.657c-2.018,0-4.056,0-6.147,0c-0.081-0.999-0.056-1.979,0.25-2.969c0.791-2.557,1.529-5.13,2.286-7.696
		C60.812,29.562,60.804,29.523,60.804,29.41z"/>
	<path fill-rule="evenodd" clip-rule="evenodd" fill="#66C9F9" d="M25.748,29.396c-0.668,0-1.299,0-1.994,0
		c0,3.655,0,7.251,0,10.878c-1.134,0-2.203,0-3.341,0c0-3.603,0-7.197,0-10.852c-0.696,0-1.326,0-2.004,0c0-0.903,0-1.749,0-2.644
		c2.422,0,4.864,0,7.339,0C25.748,27.629,25.748,28.458,25.748,29.396z"/>
	<path fill-rule="evenodd" clip-rule="evenodd" fill="#66C9F9" d="M57.322,40.269c-1.129,0-2.197,0-3.325,0c0-0.234,0-0.43,0-0.626
		c0-4.03,0-8.06,0-12.09c0-0.814,0.008-0.821,0.844-0.822c0.813-0.001,1.626,0,2.48,0C57.322,31.271,57.322,35.747,57.322,40.269z"
		/>
	<path fill-rule="evenodd" clip-rule="evenodd" fill="#66C9F9" d="M40.458,54.323c-0.365-0.733-0.656-1.365-0.996-1.97
		c-0.096-0.171-0.322-0.334-0.514-0.372c-0.678-0.136-1.367-0.215-2.137-0.328c0.518-0.52,0.972-0.999,1.454-1.448
		c0.256-0.24,0.366-0.455,0.273-0.83c-0.157-0.633-0.223-1.287-0.346-2.045c0.682,0.353,1.295,0.646,1.882,0.985
		c0.277,0.159,0.481,0.168,0.761,0.004c0.562-0.329,1.15-0.611,1.873-0.987c-0.116,0.754-0.162,1.396-0.325,2.007
		c-0.108,0.405,0.021,0.618,0.281,0.879c0.461,0.46,0.883,0.96,1.326,1.447c-0.617,0.093-1.304,0.168-1.976,0.314
		c-0.227,0.05-0.489,0.236-0.604,0.436C41.073,52.998,40.803,53.618,40.458,54.323z"/>
	<path fill-rule="evenodd" clip-rule="evenodd" fill="#66C9F9" d="M38.761,5.645c0.081-0.674,0.344-1.324,0.168-1.822
		c-0.168-0.479-0.791-0.797-1.203-1.291c1.362-0.025,2.379-0.42,2.518-2.001c0.06,0.03,0.12,0.062,0.18,0.093
		c0.152,0.305,0.327,0.6,0.451,0.916c0.189,0.479,0.441,0.809,1.029,0.792c0.349-0.01,0.7,0.099,1.243,0.185
		c-0.403,0.368-0.692,0.652-1.003,0.909c-0.3,0.249-0.44,0.517-0.327,0.923c0.111,0.396,0.151,0.812,0.237,1.305
		c-0.439-0.225-0.836-0.389-1.189-0.621c-0.347-0.229-0.63-0.211-0.968,0.009C39.551,5.266,39.167,5.432,38.761,5.645z"/>
	<path fill-rule="evenodd" clip-rule="evenodd" fill="#66C9F9" d="M51.393,48.823c-1.379-0.079-2.191,0.501-2.523,1.851
		c-0.361-1.294-1.101-1.961-2.515-1.814c1.094-0.763,1.509-1.679,0.893-2.862c0.135-0.035,0.179-0.061,0.195-0.049
		c0.986,0.746,1.963,0.821,2.981-0.114C49.968,47.102,50.166,48.09,51.393,48.823z"/>
	<path fill-rule="evenodd" clip-rule="evenodd" fill="#66C9F9" d="M23.726,10.216c0.837-0.546,1.674-1.091,2.511-1.637
		c-0.023-0.042-0.046-0.085-0.068-0.128c-0.909,0.445-1.817,0.891-2.817,1.381c2.056-2.344,4.713-3.378,7.515-4.153
		C29.292,8.439,26.681,9.594,23.726,10.216z"/>
	<path fill-rule="evenodd" clip-rule="evenodd" fill="#66C9F9" d="M57.042,10.203c-3.297-0.574-6.135-2.415-7.124-4.525
		c2.798,0.773,5.457,1.814,7.521,4.156c-0.998-0.488-1.906-0.935-2.814-1.381c-0.024,0.043-0.049,0.086-0.073,0.129
		C55.381,9.123,56.211,9.663,57.042,10.203z"/>
	<path fill-rule="evenodd" clip-rule="evenodd" fill="#66C9F9" d="M34.427,48.937c-1.428-0.119-2.154,0.545-2.447,1.951
		c-0.244-0.487-0.471-0.789-0.544-1.124c-0.12-0.55-0.461-0.657-0.939-0.674c-0.335-0.011-0.667-0.093-1.19-0.171
		c1.203-0.72,1.619-1.655,1.029-2.968c1.075,0.883,2.078,0.896,3.158,0.01C32.946,47.253,33.271,48.199,34.427,48.937z"/>
	<path fill-rule="evenodd" clip-rule="evenodd" fill="#66C9F9" d="M14.359,13.058c0.086,0.465,0.111,0.979,0.286,1.436
		c0.21,0.547,0.264,1.063,0.13,1.626c-0.168,0.71-0.301,1.428-0.466,2.226c-0.719-0.709-0.654-1.582-0.836-2.434
		c-0.327,0.783-0.279,1.229,0.293,3.173c-1.352-0.31-2.052-1.493-1.613-2.767C12.61,14.991,13.464,13.937,14.359,13.058z"/>
	<path fill-rule="evenodd" clip-rule="evenodd" fill="#66C9F9" d="M66.382,13.016c0.873,0.858,1.679,1.829,2.146,3.041
		c0.561,1.458,0.023,2.55-1.588,3.092c0.51-1.05,0.726-2.086,0.454-3.244c-0.233,0.839-0.449,1.616-0.665,2.394
		c-0.09-0.014-0.179-0.027-0.268-0.041c-0.194-1.321-0.938-2.584-0.225-4.001C66.413,13.906,66.34,13.434,66.382,13.016z"/>
	<path fill-rule="evenodd" clip-rule="evenodd" fill="#66C9F9" d="M45.495,20.995c0,0.285,0,0.502,0,0.76c-3.389,0-6.763,0-10.179,0
		c0-0.239,0-0.482,0-0.76C38.704,20.995,42.078,20.995,45.495,20.995z"/>
	<path fill-rule="evenodd" clip-rule="evenodd" fill="#66C9F9" d="M59.915,16.447c2.084-0.362,3.927,0.042,5.485,1.552
		c-0.838-0.122-1.677-0.243-2.516-0.363c-0.014,0.051-0.027,0.102-0.042,0.153c1.068,0.298,2.137,0.595,3.238,0.902
		c-0.593,0.38-1.287,0.533-1.979,0.423c-0.591-0.094-1.227-0.277-1.709-0.613C61.508,17.885,60.72,17.127,59.915,16.447z"/>
	<path fill-rule="evenodd" clip-rule="evenodd" fill="#66C9F9" d="M15.344,17.796c1.314-0.755,2.532-1.761,4.244-1.407
		c0.391,0.08,0.812,0.012,1.159,0.012c-2.133,2.508-4.047,3.398-6.084,2.243c0.584-0.126,1.136-0.218,1.672-0.367
		c0.54-0.151,1.064-0.36,1.561-0.648c-0.833,0.128-1.667,0.256-2.5,0.384C15.379,17.939,15.361,17.867,15.344,17.796z"/>
	<path fill-rule="evenodd" clip-rule="evenodd" fill="#66C9F9" d="M71.954,22.136c-0.43,0-0.823,0-1.241,0
		c0.039-0.408,0.076-0.793,0.113-1.179c-0.029-0.011-0.059-0.021-0.088-0.032c-0.09,0.173-0.229,0.338-0.26,0.521
		c-0.123,0.706-0.55,0.841-1.237,0.645c0.038-0.98-0.108-1.993,0.594-2.906c0.316-0.412,0.443-0.971,0.643-1.431
		C71.22,18.314,72.133,20.827,71.954,22.136z"/>
	<path fill-rule="evenodd" clip-rule="evenodd" fill="#66C9F9" d="M8.781,22.109c-0.075-1.728,0.679-3.134,1.624-4.507
		c-0.094,0.775,0.341,1.307,0.729,1.877c0.54,0.791,0.371,1.713,0.415,2.593c-1.176,0.462-1.136-0.598-1.592-1.308
		c0.045,0.548,0.076,0.924,0.11,1.345C9.677,22.109,9.276,22.109,8.781,22.109z"/>
	<path fill-rule="evenodd" clip-rule="evenodd" fill="#66C9F9" d="M18.596,9.75c0,0.454-0.082,0.915,0.019,1.332
		c0.159,0.661-0.096,1.209-0.322,1.771c-0.206,0.513-0.463,1.005-0.734,1.585c-0.539-0.71-0.258-1.472-0.345-2.184
		c-0.503,0.88-0.514,1.816-0.273,2.793c-1.062-0.314-1.557-1.444-1.05-2.421C16.526,11.408,17.52,10.512,18.596,9.75z"/>
	<path fill-rule="evenodd" clip-rule="evenodd" fill="#66C9F9" d="M63.845,15.131c0.214-1.043,0.242-1.994-0.314-3.037
		c-0.038,0.865,0.217,1.626-0.32,2.385c-0.362-0.864-0.71-1.635-1.004-2.426c-0.089-0.241-0.034-0.537-0.036-0.809
		c-0.004-0.499-0.001-0.998-0.001-1.521c0.952,0.715,1.853,1.483,2.497,2.519C65.403,13.429,65.175,14.358,63.845,15.131z"/>
	<path fill-rule="evenodd" clip-rule="evenodd" fill="#66C9F9" d="M23.901,13.307c-2.393,2.032-4.405,2.801-6.018,1.512
		c0.945-0.135,1.906-0.273,2.867-0.411c-0.004-0.052-0.008-0.104-0.012-0.156c-0.707,0-1.414,0-2.121,0
		c-0.016-0.067-0.033-0.134-0.049-0.2c0.866-0.291,1.714-0.709,2.604-0.836C22.044,13.091,22.959,13.262,23.901,13.307z"/>
	<path fill-rule="evenodd" clip-rule="evenodd" fill="#66C9F9" d="M56.895,13.408c1.903-0.494,3.654-0.279,5.362,0.816
		c-0.799,0-1.511,0-2.224,0c-0.006,0.059-0.011,0.119-0.018,0.178c0.963,0.139,1.926,0.277,2.962,0.426
		c-0.786,0.537-1.613,0.733-2.512,0.546C59.082,15.085,58.031,14.186,56.895,13.408z"/>
	<path fill-rule="evenodd" clip-rule="evenodd" fill="#66C9F9" d="M57.813,7.258c1.106,0.615,2.139,1.293,2.952,2.277
		c0.685,0.83,0.448,1.959-0.418,2.379c-0.05-0.428-0.051-0.863-0.16-1.27c-0.11-0.406-0.328-0.783-0.574-1.135
		c0.065,0.593,0.131,1.186,0.196,1.778c-0.073,0.019-0.146,0.037-0.22,0.056c-0.585-1.019-1.627-1.797-1.497-3.194
		C58.118,7.871,57.917,7.572,57.813,7.258z"/>
	<path fill-rule="evenodd" clip-rule="evenodd" fill="#66C9F9" d="M20.975,11.285c0.065-0.59,0.131-1.182,0.202-1.825
		c-0.583,0.74-0.749,1.552-0.688,2.434c-1.015-0.392-1.126-1.646-0.52-2.265c0.65-0.663,1.381-1.248,2.101-1.84
		c0.267-0.219,0.599-0.359,0.81-0.483c-0.063,0.413-0.105,0.872-0.209,1.315c-0.088,0.377-0.194,0.768-0.385,1.098
		c-0.326,0.564-0.724,1.085-1.092,1.624C21.12,11.324,21.048,11.305,20.975,11.285z"/>
	<path fill-rule="evenodd" clip-rule="evenodd" fill="#66C9F9" d="M59.342,11.67c-1.283,1.404-3.403,0.767-5.575-0.672
		c1.59-0.596,3.204-0.516,4.789,0.346c-0.647,0.049-1.295,0.098-1.943,0.148c0.001,0.059,0.003,0.119,0.004,0.178
		C57.525,11.67,58.434,11.67,59.342,11.67z"/>
	<path fill-rule="evenodd" clip-rule="evenodd" fill="#66C9F9" d="M22.225,11.342c1.576-0.844,3.181-0.959,4.757-0.338
		c-1.214,1.406-4.335,1.921-5.612,0.794c0.968-0.044,1.887-0.086,2.806-0.128c0-0.059,0-0.117,0-0.176
		C23.526,11.443,22.875,11.393,22.225,11.342z"/>
	<path fill-rule="evenodd" clip-rule="evenodd" fill="#66C9F9" d="M33.511,6.352c0.349-0.904,0.104-1.582-0.822-2.178
		c1.081,0.035,1.722-0.271,1.911-1.275c0.322,0.854,0.797,1.421,1.825,1.293c-0.719,0.578-1.057,1.225-0.678,2.148
		C34.97,5.744,34.257,5.748,33.511,6.352z"/>
	<path fill-rule="evenodd" clip-rule="evenodd" fill="#66C9F9" d="M45.045,6.33c0.371-0.931,0.067-1.566-0.69-2.094
		c0.938-0.006,1.55-0.38,1.793-1.339c0.244,0.962,0.854,1.331,1.774,1.284c-0.78,1.004-0.78,1.004-0.672,2.195
		C46.529,5.781,45.822,5.693,45.045,6.33z"/>
	<path fill-rule="evenodd" clip-rule="evenodd" fill="#66C9F9" d="M67.568,22.206c-0.589-0.053-1.177-0.134-1.768-0.15
		c-0.407-0.012-0.822,0.122-1.224,0.083c-0.275-0.027-0.606-0.178-0.782-0.384c-0.41-0.482-0.742-1.031-1.056-1.48
		c0.713,0.075,1.464,0.127,2.206,0.24c1.087,0.165,1.881,0.857,2.684,1.519C67.609,22.091,67.589,22.148,67.568,22.206z"/>
	<path fill-rule="evenodd" clip-rule="evenodd" fill="#66C9F9" d="M18.057,20.265c-0.377,0.522-0.761,1.141-1.241,1.674
		c-0.165,0.183-0.564,0.199-0.86,0.21c-0.739,0.028-1.481,0.01-2.222,0.01c-0.176,0-0.353,0-0.697,0
		c0.992-0.855,1.863-1.589,3.107-1.679C16.782,20.434,17.417,20.338,18.057,20.265z"/>
	<path fill-rule="evenodd" clip-rule="evenodd" fill="#66C9F9" d="M66.675,46.406c-0.753-0.834-1.273-1.795-1.645-2.931
		c0.535,0,1.009-0.032,1.474,0.02c0.13,0.015,0.334,0.281,0.329,0.426c-0.024,0.83-0.102,1.657-0.161,2.485H66.675z"/>
	<path fill-rule="evenodd" clip-rule="evenodd" fill="#66C9F9" d="M14.108,46.405c-0.059-0.809-0.119-1.617-0.176-2.426
		c-0.026-0.372,0.125-0.543,0.524-0.513c0.408,0.031,0.821,0.007,1.287,0.007c-0.356,1.142-0.883,2.1-1.637,2.932H14.108z"/>
</g>
</svg>
