<?xml version="1.0" encoding="utf-8"?>
<!-- Generator: Adobe Illustrator 21.1.0, SVG Export Plug-In . SVG Version: 6.00 Build 0)  -->
<svg version="1.1" id="Capa_1" xmlns="http://www.w3.org/2000/svg" xmlns:xlink="http://www.w3.org/1999/xlink" x="0px" y="0px"
	 viewBox="0 0 114.3 98.9" style="enable-background:new 0 0 114.3 98.9;" xml:space="preserve">
<style type="text/css">
	.st0{fill:#009ACF;}
</style>
<g>
	<g>
		<path class="st0" d="M43.7,78.6c-5,0-9.1,4.1-9.1,9.1s4.1,9.1,9.1,9.1s9.1-4.1,9.1-9.1C52.8,82.6,48.7,78.6,43.7,78.6z"/>
		<path class="st0" d="M83.4,78.6c-5,0-9.1,4.1-9.1,9.1s4.1,9.1,9.1,9.1s9.1-4.1,9.1-9.1C92.6,82.6,88.5,78.6,83.4,78.6z"/>
		<path class="st0" d="M106.3,28.7H55.9c-2.5,0-4.6,2-4.6,4.6c0,2.5,2,4.6,4.6,4.6h44.6l-2.8,9.6H52.3c-2.3,0-4.2,1.9-4.2,4.2
			s1.9,4.2,4.2,4.2h42.9l-2.7,9H41.4l-3.4-27l-3.2-26.3C34.5,9.5,33,7.8,31,7.3L9.4,1.6c-2.7-0.7-5.5,1-6.2,3.7s1,5.5,3.7,6.2
			L25,16.2l7.1,53.2c0,0,0.2,6.2,5.9,6.2h56.5c4.7,0,5.6-4.9,5.6-4.9l11.2-33.3C111.3,37.3,114.7,28.7,106.3,28.7z"/>
	</g>
</g>
</svg>
