<?xml version="1.0" encoding="utf-8"?>
<!-- Generator: Adobe Illustrator 21.1.0, SVG Export Plug-In . SVG Version: 6.00 Build 0)  -->
<svg version="1.1" id="Layer_1" xmlns="http://www.w3.org/2000/svg" xmlns:xlink="http://www.w3.org/1999/xlink" x="0px" y="0px"
	 viewBox="0 0 271 54.8" style="enable-background:new 0 0 271 54.8;" xml:space="preserve">
<style type="text/css">
	.st0{fill:#02439C;}
</style>
<g>
	<path class="st0" d="M127.2,1.8c0,0-102.4-1.5-122.3,14.9c-11.4,9.5,7.7,23.6,37,23.6c0,0-37.8-13.8-6.5-26.5
		C45.3,8.9,71.6,5.4,127.2,1.8z"/>
	<path class="st0" d="M144.3,53c0,0,102.4,1.5,122.3-14.9c11.4-9.5-7.7-23.6-37-23.6c0,0,37.8,13.8,6.5,26.5
		C226.1,46,199.8,49.4,144.3,53z"/>
	<g>
		<g>
			<path class="st0" d="M56.3,15.3l-5.6,25h-5.2l5.6-25H56.3z"/>
			<path class="st0" d="M56.9,40.2l5.6-25h5.9l5.2,11.6c1.3,3,2,5.3,2.7,7.8h0.1c0.2-2.4,0.5-4.9,1.3-8.4l2.5-11H85l-5.6,25h-5.2
				l-5.3-11.8c-1.4-3.3-2.1-5.3-2.8-8l-0.2,0c-0.3,2.4-0.9,5.4-1.7,9.1l-2.4,10.7H56.9z"/>
			<path class="st0" d="M91.7,40.2l-3.7-25h5.2L95,29c0.4,2.6,0.5,4.6,0.7,6.7h0.1c1-2,2.1-4.3,3.7-6.9l7.9-13.6h5.7l-15.5,25H91.7z
				"/>
			<path class="st0" d="M129.3,29.1h-10.7l-1.7,7.4h12l-0.8,3.7H111l5.6-25h16.5l-0.8,3.7H121l-1.5,6.6h10.7L129.3,29.1z"/>
			<path class="st0" d="M138.5,15.7c1.9-0.4,4.7-0.6,7.3-0.6c2.9,0,5.6,0.5,7.4,1.6c1.7,1,2.8,2.5,2.8,4.5c0,3.7-3.1,6.2-6.9,7.1
				l0,0.1c1.9,0.6,2.8,2.4,3,4.7c0.4,3.1,0.6,6,1.1,7h-5.3c-0.2-0.6-0.5-3-0.8-6c-0.2-3.2-1.6-4.3-4.3-4.3h-2.5L138,40.2h-5.1
				L138.5,15.7z M141,26.7h2.9c4,0,6.7-2.1,6.7-4.8c0-2.3-2.2-3.3-5.1-3.3c-1.3,0-2.1,0.1-2.7,0.2L141,26.7z"/>
			<path class="st0" d="M167,19.1h-8.2l0.9-3.8h21.6l-0.9,3.8h-8.3l-4.8,21.2h-5.2L167,19.1z"/>
			<path class="st0" d="M197.4,29.1h-10.7l-1.7,7.4h12l-0.8,3.7H179l5.6-25h16.5l-0.8,3.7H189l-1.5,6.6h10.7L197.4,29.1z"/>
			<path class="st0" d="M206.5,15.7c1.9-0.4,4.7-0.6,7.3-0.6c2.9,0,5.6,0.5,7.4,1.6c1.7,1,2.8,2.5,2.8,4.5c0,3.7-3.1,6.2-6.9,7.1
				l0,0.1c1.9,0.6,2.8,2.4,3,4.7c0.4,3.1,0.6,6,1.1,7h-5.3c-0.2-0.6-0.5-3-0.8-6c-0.2-3.2-1.6-4.3-4.3-4.3h-2.5L206,40.2h-5.1
				L206.5,15.7z M209.1,26.7h2.9c4,0,6.7-2.1,6.7-4.8c0-2.3-2.2-3.3-5.1-3.3c-1.3,0-2.1,0.1-2.7,0.2L209.1,26.7z"/>
		</g>
	</g>
</g>
</svg>
