<?xml version="1.0" encoding="utf-8"?>
<!-- Generator: Adobe Illustrator 16.0.0, SVG Export Plug-In . SVG Version: 6.00 Build 0)  -->
<!DOCTYPE svg PUBLIC "-//W3C//DTD SVG 1.1//EN" "http://www.w3.org/Graphics/SVG/1.1/DTD/svg11.dtd">
<svg version="1.1" id="Capa_1" xmlns="http://www.w3.org/2000/svg" xmlns:xlink="http://www.w3.org/1999/xlink" x="0px" y="0px"
	 width="81.413px" height="81.75px" viewBox="0 88.25 81.413 81.75" enable-background="new 0 88.25 81.413 81.75"
	 xml:space="preserve">
<path fill="#66C9F9" d="M78.939,92.962c-1.354-1.354-3.154-2.1-5.068-2.1s-3.714,0.746-5.068,2.1l-32.014,32.014l10.137,10.136
	l32.014-32.014C81.734,100.304,81.734,95.756,78.939,92.962z M76.045,98.686L48.53,126.2c-0.391,0.391-0.903,0.586-1.415,0.586
	c-0.512,0-1.024-0.195-1.414-0.586c-0.782-0.782-0.782-2.049,0-2.83l27.514-27.515c0.781-0.781,2.049-0.781,2.83,0
	C76.826,96.638,76.826,97.904,76.045,98.686z M77.943,152.427l-21.336-21.336l-6.852,6.852l1.055,1.054
	c0.781,0.782,0.781,2.05,0,2.831c-0.391,0.391-0.903,0.585-1.415,0.585s-1.024-0.194-1.415-0.585l-2.469-2.47
	c0,0-0.001,0-0.001-0.001l-5.068-5.068l0,0l-2.83-2.83l0,0l-5.068-5.067l0,0l-2.47-2.471c-0.782-0.781-0.782-2.048,0-2.829
	c0.781-0.781,2.049-0.781,2.83,0l1.056,1.055l6.851-6.851l-6.136-6.137c1.068-5.6-0.7-11.448-4.755-15.503
	c-3.268-3.269-7.614-5.067-12.236-5.067c-1.648,0-3.285,0.232-4.863,0.693c-0.679,0.198-1.203,0.74-1.378,1.425
	c-0.176,0.685,0.023,1.411,0.524,1.911l6.599,6.6c1.397,1.398,1.397,3.673,0,5.071l-2.489,2.489c-0.677,0.677-1.578,1.05-2.536,1.05
	c-0.958,0-1.858-0.373-2.535-1.05l-6.6-6.6c-0.5-0.501-1.226-0.699-1.911-0.523c-0.686,0.175-1.227,0.699-1.425,1.378
	c-1.926,6.6,0.244,13.727,5.527,18.155c3.118,2.613,7.052,4.053,11.078,4.053c1.109,0,2.216-0.108,3.304-0.321l12.586,12.587
	l-20.547,20.547l-1.107-1.107c-0.422-0.422-1.005-0.633-1.604-0.577c-0.594,0.058-1.132,0.376-1.467,0.87l-5.845,8.627
	c-0.538,0.794-0.437,1.859,0.242,2.537l2.261,2.261c0.387,0.387,0.899,0.586,1.416,0.586c0.389,0,0.78-0.113,1.122-0.345
	l8.627-5.844c0.494-0.334,0.813-0.873,0.87-1.467c0.057-0.594-0.155-1.183-0.577-1.604l-1.107-1.106l20.548-20.548l27.82,27.819
	c1.833,1.834,4.271,2.843,6.863,2.843c2.593,0,5.03-1.009,6.863-2.843C81.727,162.369,81.727,156.211,77.943,152.427z
	 M73.933,162.146c-0.958,0.957-2.23,1.484-3.583,1.484c-1.354,0-2.627-0.527-3.583-1.485c-1.976-1.976-1.976-5.19,0-7.167
	c0.957-0.957,2.229-1.484,3.583-1.484c1.354,0,2.627,0.527,3.583,1.484C75.91,156.954,75.91,160.17,73.933,162.146z"/>
</svg>
